<svg xmlns="http://www.w3.org/2000/svg" width="760" height="380" viewBox="0 0 760 380" font-family="system-ui, -apple-system, 'Segoe UI', sans-serif">
<rect width="760" height="380" fill="#fcfcfb" rx="8"/>
<text x="20" y="26" font-size="14" fill="#0b0b0b" text-anchor="start" font-weight="600">A single coordinate of a random point on the sphere — the equator squeeze</text>
<text x="20" y="43" font-size="11" fill="#52514e" text-anchor="start" font-weight="normal">density of x₁ on Sⁿ⁻¹ ∝ (1−x₁²)^((n−3)ᐟ2); width shrinks like 1ᐟ√n, so nearly all points hug the equator x₁ = 0</text>
<rect x="20" y="54" width="10" height="10" rx="2" fill="#86b6ef"/>
<text x="34" y="63" font-size="10.5" fill="#52514e" text-anchor="start" font-weight="normal">n = 3</text>
<rect x="80" y="54" width="10" height="10" rx="2" fill="#3987e5"/>
<text x="94" y="63" font-size="10.5" fill="#52514e" text-anchor="start" font-weight="normal">n = 10</text>
<rect x="145.6" y="54" width="10" height="10" rx="2" fill="#1c5cab"/>
<text x="159.6" y="63" font-size="10.5" fill="#52514e" text-anchor="start" font-weight="normal">n = 100</text>
<rect x="216.79999999999998" y="54" width="10" height="10" rx="2" fill="#0d366b"/>
<text x="230.79999999999998" y="63" font-size="10.5" fill="#52514e" text-anchor="start" font-weight="normal">n = 1000</text>
<line x1="56" y1="336" x2="736" y2="336" stroke="#e1e0d9" stroke-width="1"/>
<text x="48" y="339.5" font-size="10.5" fill="#898781" text-anchor="end" font-weight="normal">0</text>
<line x1="56" y1="258.46153846153845" x2="736" y2="258.46153846153845" stroke="#e1e0d9" stroke-width="1"/>
<text x="48" y="261.96153846153845" font-size="10.5" fill="#898781" text-anchor="end" font-weight="normal">4</text>
<line x1="56" y1="180.9230769230769" x2="736" y2="180.9230769230769" stroke="#e1e0d9" stroke-width="1"/>
<text x="48" y="184.4230769230769" font-size="10.5" fill="#898781" text-anchor="end" font-weight="normal">8</text>
<line x1="56" y1="103.38461538461537" x2="736" y2="103.38461538461537" stroke="#e1e0d9" stroke-width="1"/>
<text x="48" y="106.88461538461537" font-size="10.5" fill="#898781" text-anchor="end" font-weight="normal">12</text>
<text x="56" y="352" font-size="10.5" fill="#898781" text-anchor="middle" font-weight="normal">-1</text>
<text x="226" y="352" font-size="10.5" fill="#898781" text-anchor="middle" font-weight="normal">-0.5</text>
<text x="396" y="352" font-size="10.5" fill="#898781" text-anchor="middle" font-weight="normal">0</text>
<text x="566" y="352" font-size="10.5" fill="#898781" text-anchor="middle" font-weight="normal">0.5</text>
<text x="736" y="352" font-size="10.5" fill="#898781" text-anchor="middle" font-weight="normal">1</text>
<line x1="56" y1="336" x2="736" y2="336" stroke="#c3c2b7" stroke-width="1.5"/>
<text x="396" y="372" font-size="10.5" fill="#898781" text-anchor="middle" font-weight="normal">coordinate x₁  (±1 = the poles)</text>
<path d="M56.00,326.31L57.42,326.31L58.83,326.31L60.25,326.31L61.67,326.31L63.08,326.31L64.50,326.31L65.92,326.31L67.33,326.31L68.75,326.31L70.17,326.31L71.58,326.31L73.00,326.31L74.42,326.31L75.83,326.31L77.25,326.31L78.67,326.31L80.08,326.31L81.50,326.31L82.92,326.31L84.33,326.31L85.75,326.31L87.17,326.31L88.58,326.31L90.00,326.31L91.42,326.31L92.83,326.31L94.25,326.31L95.67,326.31L97.08,326.31L98.50,326.31L99.92,326.31L101.33,326.31L102.75,326.31L104.17,326.31L105.58,326.31L107.00,326.31L108.42,326.31L109.83,326.31L111.25,326.31L112.67,326.31L114.08,326.31L115.50,326.31L116.92,326.31L118.33,326.31L119.75,326.31L121.17,326.31L122.58,326.31L124.00,326.31L125.42,326.31L126.83,326.31L128.25,326.31L129.67,326.31L131.08,326.31L132.50,326.31L133.92,326.31L135.33,326.31L136.75,326.31L138.17,326.31L139.58,326.31L141.00,326.31L142.42,326.31L143.83,326.31L145.25,326.31L146.67,326.31L148.08,326.31L149.50,326.31L150.92,326.31L152.33,326.31L153.75,326.31L155.17,326.31L156.58,326.31L158.00,326.31L159.42,326.31L160.83,326.31L162.25,326.31L163.67,326.31L165.08,326.31L166.50,326.31L167.92,326.31L169.33,326.31L170.75,326.31L172.17,326.31L173.58,326.31L175.00,326.31L176.42,326.31L177.83,326.31L179.25,326.31L180.67,326.31L182.08,326.31L183.50,326.31L184.92,326.31L186.33,326.31L187.75,326.31L189.17,326.31L190.58,326.31L192.00,326.31L193.42,326.31L194.83,326.31L196.25,326.31L197.67,326.31L199.08,326.31L200.50,326.31L201.92,326.31L203.33,326.31L204.75,326.31L206.17,326.31L207.58,326.31L209.00,326.31L210.42,326.31L211.83,326.31L213.25,326.31L214.67,326.31L216.08,326.31L217.50,326.31L218.92,326.31L220.33,326.31L221.75,326.31L223.17,326.31L224.58,326.31L226.00,326.31L227.42,326.31L228.83,326.31L230.25,326.31L231.67,326.31L233.08,326.31L234.50,326.31L235.92,326.31L237.33,326.31L238.75,326.31L240.17,326.31L241.58,326.31L243.00,326.31L244.42,326.31L245.83,326.31L247.25,326.31L248.67,326.31L250.08,326.31L251.50,326.31L252.92,326.31L254.33,326.31L255.75,326.31L257.17,326.31L258.58,326.31L260.00,326.31L261.42,326.31L262.83,326.31L264.25,326.31L265.67,326.31L267.08,326.31L268.50,326.31L269.92,326.31L271.33,326.31L272.75,326.31L274.17,326.31L275.58,326.31L277.00,326.31L278.42,326.31L279.83,326.31L281.25,326.31L282.67,326.31L284.08,326.31L285.50,326.31L286.92,326.31L288.33,326.31L289.75,326.31L291.17,326.31L292.58,326.31L294.00,326.31L295.42,326.31L296.83,326.31L298.25,326.31L299.67,326.31L301.08,326.31L302.50,326.31L303.92,326.31L305.33,326.31L306.75,326.31L308.17,326.31L309.58,326.31L311.00,326.31L312.42,326.31L313.83,326.31L315.25,326.31L316.67,326.31L318.08,326.31L319.50,326.31L320.92,326.31L322.33,326.31L323.75,326.31L325.17,326.31L326.58,326.31L328.00,326.31L329.42,326.31L330.83,326.31L332.25,326.31L333.67,326.31L335.08,326.31L336.50,326.31L337.92,326.31L339.33,326.31L340.75,326.31L342.17,326.31L343.58,326.31L345.00,326.31L346.42,326.31L347.83,326.31L349.25,326.31L350.67,326.31L352.08,326.31L353.50,326.31L354.92,326.31L356.33,326.31L357.75,326.31L359.17,326.31L360.58,326.31L362.00,326.31L363.42,326.31L364.83,326.31L366.25,326.31L367.67,326.31L369.08,326.31L370.50,326.31L371.92,326.31L373.33,326.31L374.75,326.31L376.17,326.31L377.58,326.31L379.00,326.31L380.42,326.31L381.83,326.31L383.25,326.31L384.67,326.31L386.08,326.31L387.50,326.31L388.92,326.31L390.33,326.31L391.75,326.31L393.17,326.31L394.58,326.31L396.00,326.31L397.42,326.31L398.83,326.31L400.25,326.31L401.67,326.31L403.08,326.31L404.50,326.31L405.92,326.31L407.33,326.31L408.75,326.31L410.17,326.31L411.58,326.31L413.00,326.31L414.42,326.31L415.83,326.31L417.25,326.31L418.67,326.31L420.08,326.31L421.50,326.31L422.92,326.31L424.33,326.31L425.75,326.31L427.17,326.31L428.58,326.31L430.00,326.31L431.42,326.31L432.83,326.31L434.25,326.31L435.67,326.31L437.08,326.31L438.50,326.31L439.92,326.31L441.33,326.31L442.75,326.31L444.17,326.31L445.58,326.31L447.00,326.31L448.42,326.31L449.83,326.31L451.25,326.31L452.67,326.31L454.08,326.31L455.50,326.31L456.92,326.31L458.33,326.31L459.75,326.31L461.17,326.31L462.58,326.31L464.00,326.31L465.42,326.31L466.83,326.31L468.25,326.31L469.67,326.31L471.08,326.31L472.50,326.31L473.92,326.31L475.33,326.31L476.75,326.31L478.17,326.31L479.58,326.31L481.00,326.31L482.42,326.31L483.83,326.31L485.25,326.31L486.67,326.31L488.08,326.31L489.50,326.31L490.92,326.31L492.33,326.31L493.75,326.31L495.17,326.31L496.58,326.31L498.00,326.31L499.42,326.31L500.83,326.31L502.25,326.31L503.67,326.31L505.08,326.31L506.50,326.31L507.92,326.31L509.33,326.31L510.75,326.31L512.17,326.31L513.58,326.31L515.00,326.31L516.42,326.31L517.83,326.31L519.25,326.31L520.67,326.31L522.08,326.31L523.50,326.31L524.92,326.31L526.33,326.31L527.75,326.31L529.17,326.31L530.58,326.31L532.00,326.31L533.42,326.31L534.83,326.31L536.25,326.31L537.67,326.31L539.08,326.31L540.50,326.31L541.92,326.31L543.33,326.31L544.75,326.31L546.17,326.31L547.58,326.31L549.00,326.31L550.42,326.31L551.83,326.31L553.25,326.31L554.67,326.31L556.08,326.31L557.50,326.31L558.92,326.31L560.33,326.31L561.75,326.31L563.17,326.31L564.58,326.31L566.00,326.31L567.42,326.31L568.83,326.31L570.25,326.31L571.67,326.31L573.08,326.31L574.50,326.31L575.92,326.31L577.33,326.31L578.75,326.31L580.17,326.31L581.58,326.31L583.00,326.31L584.42,326.31L585.83,326.31L587.25,326.31L588.67,326.31L590.08,326.31L591.50,326.31L592.92,326.31L594.33,326.31L595.75,326.31L597.17,326.31L598.58,326.31L600.00,326.31L601.42,326.31L602.83,326.31L604.25,326.31L605.67,326.31L607.08,326.31L608.50,326.31L609.92,326.31L611.33,326.31L612.75,326.31L614.17,326.31L615.58,326.31L617.00,326.31L618.42,326.31L619.83,326.31L621.25,326.31L622.67,326.31L624.08,326.31L625.50,326.31L626.92,326.31L628.33,326.31L629.75,326.31L631.17,326.31L632.58,326.31L634.00,326.31L635.42,326.31L636.83,326.31L638.25,326.31L639.67,326.31L641.08,326.31L642.50,326.31L643.92,326.31L645.33,326.31L646.75,326.31L648.17,326.31L649.58,326.31L651.00,326.31L652.42,326.31L653.83,326.31L655.25,326.31L656.67,326.31L658.08,326.31L659.50,326.31L660.92,326.31L662.33,326.31L663.75,326.31L665.17,326.31L666.58,326.31L668.00,326.31L669.42,326.31L670.83,326.31L672.25,326.31L673.67,326.31L675.08,326.31L676.50,326.31L677.92,326.31L679.33,326.31L680.75,326.31L682.17,326.31L683.58,326.31L685.00,326.31L686.42,326.31L687.83,326.31L689.25,326.31L690.67,326.31L692.08,326.31L693.50,326.31L694.92,326.31L696.33,326.31L697.75,326.31L699.17,326.31L700.58,326.31L702.00,326.31L703.42,326.31L704.83,326.31L706.25,326.31L707.67,326.31L709.08,326.31L710.50,326.31L711.92,326.31L713.33,326.31L714.75,326.31L716.17,326.31L717.58,326.31L719.00,326.31L720.42,326.31L721.83,326.31L723.25,326.31L724.67,326.31L726.08,326.31L727.50,326.31L728.92,326.31L730.33,326.31L731.75,326.31L733.17,326.31L734.58,326.31L736.00,326.31" fill="none" stroke="#86b6ef" stroke-width="2" stroke-linejoin="round" stroke-linecap="round"/>
<path d="M56.00,336.00L57.42,336.00L58.83,336.00L60.25,336.00L61.67,336.00L63.08,336.00L64.50,336.00L65.92,336.00L67.33,336.00L68.75,336.00L70.17,336.00L71.58,336.00L73.00,335.99L74.42,335.99L75.83,335.99L77.25,335.99L78.67,335.98L80.08,335.98L81.50,335.97L82.92,335.97L84.33,335.96L85.75,335.96L87.17,335.95L88.58,335.94L90.00,335.93L91.42,335.92L92.83,335.91L94.25,335.90L95.67,335.89L97.08,335.87L98.50,335.86L99.92,335.84L101.33,335.83L102.75,335.81L104.17,335.79L105.58,335.77L107.00,335.75L108.42,335.72L109.83,335.70L111.25,335.67L112.67,335.64L114.08,335.62L115.50,335.58L116.92,335.55L118.33,335.52L119.75,335.48L121.17,335.45L122.58,335.41L124.00,335.37L125.42,335.33L126.83,335.28L128.25,335.24L129.67,335.19L131.08,335.14L132.50,335.09L133.92,335.04L135.33,334.99L136.75,334.93L138.17,334.87L139.58,334.81L141.00,334.75L142.42,334.69L143.83,334.62L145.25,334.55L146.67,334.48L148.08,334.41L149.50,334.34L150.92,334.27L152.33,334.19L153.75,334.11L155.17,334.03L156.58,333.95L158.00,333.86L159.42,333.78L160.83,333.69L162.25,333.60L163.67,333.50L165.08,333.41L166.50,333.31L167.92,333.22L169.33,333.12L170.75,333.01L172.17,332.91L173.58,332.80L175.00,332.70L176.42,332.59L177.83,332.48L179.25,332.36L180.67,332.25L182.08,332.13L183.50,332.01L184.92,331.89L186.33,331.77L187.75,331.65L189.17,331.52L190.58,331.40L192.00,331.27L193.42,331.14L194.83,331.01L196.25,330.87L197.67,330.74L199.08,330.60L200.50,330.46L201.92,330.32L203.33,330.18L204.75,330.04L206.17,329.90L207.58,329.75L209.00,329.60L210.42,329.46L211.83,329.31L213.25,329.16L214.67,329.01L216.08,328.85L217.50,328.70L218.92,328.55L220.33,328.39L221.75,328.23L223.17,328.07L224.58,327.92L226.00,327.76L227.42,327.59L228.83,327.43L230.25,327.27L231.67,327.11L233.08,326.94L234.50,326.78L235.92,326.61L237.33,326.45L238.75,326.28L240.17,326.11L241.58,325.95L243.00,325.78L244.42,325.61L245.83,325.44L247.25,325.27L248.67,325.10L250.08,324.93L251.50,324.76L252.92,324.59L254.33,324.42L255.75,324.25L257.17,324.08L258.58,323.91L260.00,323.74L261.42,323.57L262.83,323.40L264.25,323.23L265.67,323.06L267.08,322.89L268.50,322.72L269.92,322.55L271.33,322.39L272.75,322.22L274.17,322.05L275.58,321.88L277.00,321.72L278.42,321.55L279.83,321.39L281.25,321.22L282.67,321.06L284.08,320.89L285.50,320.73L286.92,320.57L288.33,320.41L289.75,320.25L291.17,320.09L292.58,319.93L294.00,319.78L295.42,319.62L296.83,319.47L298.25,319.32L299.67,319.16L301.08,319.01L302.50,318.86L303.92,318.72L305.33,318.57L306.75,318.42L308.17,318.28L309.58,318.14L311.00,318.00L312.42,317.86L313.83,317.72L315.25,317.58L316.67,317.45L318.08,317.32L319.50,317.19L320.92,317.06L322.33,316.93L323.75,316.80L325.17,316.68L326.58,316.56L328.00,316.44L329.42,316.32L330.83,316.20L332.25,316.09L333.67,315.98L335.08,315.87L336.50,315.76L337.92,315.66L339.33,315.55L340.75,315.45L342.17,315.35L343.58,315.26L345.00,315.16L346.42,315.07L347.83,314.98L349.25,314.89L350.67,314.81L352.08,314.72L353.50,314.64L354.92,314.57L356.33,314.49L357.75,314.42L359.17,314.35L360.58,314.28L362.00,314.21L363.42,314.15L364.83,314.09L366.25,314.03L367.67,313.98L369.08,313.93L370.50,313.88L371.92,313.83L373.33,313.78L374.75,313.74L376.17,313.70L377.58,313.67L379.00,313.63L380.42,313.60L381.83,313.57L383.25,313.55L384.67,313.52L386.08,313.50L387.50,313.48L388.92,313.47L390.33,313.46L391.75,313.45L393.17,313.44L394.58,313.44L396.00,313.43L397.42,313.44L398.83,313.44L400.25,313.45L401.67,313.46L403.08,313.47L404.50,313.48L405.92,313.50L407.33,313.52L408.75,313.55L410.17,313.57L411.58,313.60L413.00,313.63L414.42,313.67L415.83,313.70L417.25,313.74L418.67,313.78L420.08,313.83L421.50,313.88L422.92,313.93L424.33,313.98L425.75,314.03L427.17,314.09L428.58,314.15L430.00,314.21L431.42,314.28L432.83,314.35L434.25,314.42L435.67,314.49L437.08,314.57L438.50,314.64L439.92,314.72L441.33,314.81L442.75,314.89L444.17,314.98L445.58,315.07L447.00,315.16L448.42,315.26L449.83,315.35L451.25,315.45L452.67,315.55L454.08,315.66L455.50,315.76L456.92,315.87L458.33,315.98L459.75,316.09L461.17,316.20L462.58,316.32L464.00,316.44L465.42,316.56L466.83,316.68L468.25,316.80L469.67,316.93L471.08,317.06L472.50,317.19L473.92,317.32L475.33,317.45L476.75,317.58L478.17,317.72L479.58,317.86L481.00,318.00L482.42,318.14L483.83,318.28L485.25,318.42L486.67,318.57L488.08,318.72L489.50,318.86L490.92,319.01L492.33,319.16L493.75,319.32L495.17,319.47L496.58,319.62L498.00,319.78L499.42,319.93L500.83,320.09L502.25,320.25L503.67,320.41L505.08,320.57L506.50,320.73L507.92,320.89L509.33,321.06L510.75,321.22L512.17,321.39L513.58,321.55L515.00,321.72L516.42,321.88L517.83,322.05L519.25,322.22L520.67,322.39L522.08,322.55L523.50,322.72L524.92,322.89L526.33,323.06L527.75,323.23L529.17,323.40L530.58,323.57L532.00,323.74L533.42,323.91L534.83,324.08L536.25,324.25L537.67,324.42L539.08,324.59L540.50,324.76L541.92,324.93L543.33,325.10L544.75,325.27L546.17,325.44L547.58,325.61L549.00,325.78L550.42,325.95L551.83,326.11L553.25,326.28L554.67,326.45L556.08,326.61L557.50,326.78L558.92,326.94L560.33,327.11L561.75,327.27L563.17,327.43L564.58,327.59L566.00,327.76L567.42,327.92L568.83,328.07L570.25,328.23L571.67,328.39L573.08,328.55L574.50,328.70L575.92,328.85L577.33,329.01L578.75,329.16L580.17,329.31L581.58,329.46L583.00,329.60L584.42,329.75L585.83,329.90L587.25,330.04L588.67,330.18L590.08,330.32L591.50,330.46L592.92,330.60L594.33,330.74L595.75,330.87L597.17,331.01L598.58,331.14L600.00,331.27L601.42,331.40L602.83,331.52L604.25,331.65L605.67,331.77L607.08,331.89L608.50,332.01L609.92,332.13L611.33,332.25L612.75,332.36L614.17,332.48L615.58,332.59L617.00,332.70L618.42,332.80L619.83,332.91L621.25,333.01L622.67,333.12L624.08,333.22L625.50,333.31L626.92,333.41L628.33,333.50L629.75,333.60L631.17,333.69L632.58,333.78L634.00,333.86L635.42,333.95L636.83,334.03L638.25,334.11L639.67,334.19L641.08,334.27L642.50,334.34L643.92,334.41L645.33,334.48L646.75,334.55L648.17,334.62L649.58,334.69L651.00,334.75L652.42,334.81L653.83,334.87L655.25,334.93L656.67,334.99L658.08,335.04L659.50,335.09L660.92,335.14L662.33,335.19L663.75,335.24L665.17,335.28L666.58,335.33L668.00,335.37L669.42,335.41L670.83,335.45L672.25,335.48L673.67,335.52L675.08,335.55L676.50,335.58L677.92,335.62L679.33,335.64L680.75,335.67L682.17,335.70L683.58,335.72L685.00,335.75L686.42,335.77L687.83,335.79L689.25,335.81L690.67,335.83L692.08,335.84L693.50,335.86L694.92,335.87L696.33,335.89L697.75,335.90L699.17,335.91L700.58,335.92L702.00,335.93L703.42,335.94L704.83,335.95L706.25,335.96L707.67,335.96L709.08,335.97L710.50,335.97L711.92,335.98L713.33,335.98L714.75,335.99L716.17,335.99L717.58,335.99L719.00,335.99L720.42,336.00L721.83,336.00L723.25,336.00L724.67,336.00L726.08,336.00L727.50,336.00L728.92,336.00L730.33,336.00L731.75,336.00L733.17,336.00L734.58,336.00L736.00,336.00" fill="none" stroke="#3987e5" stroke-width="2" stroke-linejoin="round" stroke-linecap="round"/>
<path d="M56.00,336.00L57.42,336.00L58.83,336.00L60.25,336.00L61.67,336.00L63.08,336.00L64.50,336.00L65.92,336.00L67.33,336.00L68.75,336.00L70.17,336.00L71.58,336.00L73.00,336.00L74.42,336.00L75.83,336.00L77.25,336.00L78.67,336.00L80.08,336.00L81.50,336.00L82.92,336.00L84.33,336.00L85.75,336.00L87.17,336.00L88.58,336.00L90.00,336.00L91.42,336.00L92.83,336.00L94.25,336.00L95.67,336.00L97.08,336.00L98.50,336.00L99.92,336.00L101.33,336.00L102.75,336.00L104.17,336.00L105.58,336.00L107.00,336.00L108.42,336.00L109.83,336.00L111.25,336.00L112.67,336.00L114.08,336.00L115.50,336.00L116.92,336.00L118.33,336.00L119.75,336.00L121.17,336.00L122.58,336.00L124.00,336.00L125.42,336.00L126.83,336.00L128.25,336.00L129.67,336.00L131.08,336.00L132.50,336.00L133.92,336.00L135.33,336.00L136.75,336.00L138.17,336.00L139.58,336.00L141.00,336.00L142.42,336.00L143.83,336.00L145.25,336.00L146.67,336.00L148.08,336.00L149.50,336.00L150.92,336.00L152.33,336.00L153.75,336.00L155.17,336.00L156.58,336.00L158.00,336.00L159.42,336.00L160.83,336.00L162.25,336.00L163.67,336.00L165.08,336.00L166.50,336.00L167.92,336.00L169.33,336.00L170.75,336.00L172.17,336.00L173.58,336.00L175.00,336.00L176.42,336.00L177.83,336.00L179.25,336.00L180.67,336.00L182.08,336.00L183.50,336.00L184.92,336.00L186.33,336.00L187.75,336.00L189.17,336.00L190.58,336.00L192.00,336.00L193.42,336.00L194.83,336.00L196.25,336.00L197.67,336.00L199.08,336.00L200.50,336.00L201.92,336.00L203.33,336.00L204.75,336.00L206.17,336.00L207.58,336.00L209.00,336.00L210.42,336.00L211.83,336.00L213.25,336.00L214.67,336.00L216.08,336.00L217.50,336.00L218.92,336.00L220.33,336.00L221.75,336.00L223.17,336.00L224.58,336.00L226.00,336.00L227.42,336.00L228.83,336.00L230.25,336.00L231.67,336.00L233.08,336.00L234.50,336.00L235.92,336.00L237.33,336.00L238.75,336.00L240.17,336.00L241.58,336.00L243.00,336.00L244.42,336.00L245.83,336.00L247.25,336.00L248.67,336.00L250.08,336.00L251.50,336.00L252.92,335.99L254.33,335.99L255.75,335.99L257.17,335.99L258.58,335.99L260.00,335.98L261.42,335.98L262.83,335.98L264.25,335.97L265.67,335.97L267.08,335.96L268.50,335.95L269.92,335.94L271.33,335.93L272.75,335.92L274.17,335.90L275.58,335.88L277.00,335.86L278.42,335.84L279.83,335.81L281.25,335.78L282.67,335.75L284.08,335.71L285.50,335.66L286.92,335.60L288.33,335.54L289.75,335.47L291.17,335.40L292.58,335.31L294.00,335.21L295.42,335.10L296.83,334.97L298.25,334.83L299.67,334.67L301.08,334.50L302.50,334.31L303.92,334.09L305.33,333.86L306.75,333.59L308.17,333.31L309.58,332.99L311.00,332.64L312.42,332.27L313.83,331.85L315.25,331.41L316.67,330.92L318.08,330.39L319.50,329.82L320.92,329.21L322.33,328.55L323.75,327.84L325.17,327.08L326.58,326.27L328.00,325.40L329.42,324.48L330.83,323.51L332.25,322.47L333.67,321.38L335.08,320.23L336.50,319.02L337.92,317.75L339.33,316.42L340.75,315.04L342.17,313.60L343.58,312.10L345.00,310.55L346.42,308.94L347.83,307.29L349.25,305.59L350.67,303.84L352.08,302.06L353.50,300.24L354.92,298.39L356.33,296.52L357.75,294.62L359.17,292.71L360.58,290.78L362.00,288.86L363.42,286.94L364.83,285.03L366.25,283.13L367.67,281.26L369.08,279.42L370.50,277.62L371.92,275.86L373.33,274.16L374.75,272.52L376.17,270.94L377.58,269.44L379.00,268.02L380.42,266.69L381.83,265.45L383.25,264.31L384.67,263.28L386.08,262.35L387.50,261.54L388.92,260.85L390.33,260.28L391.75,259.83L393.17,259.51L394.58,259.31L396.00,259.25L397.42,259.31L398.83,259.51L400.25,259.83L401.67,260.28L403.08,260.85L404.50,261.54L405.92,262.35L407.33,263.28L408.75,264.31L410.17,265.45L411.58,266.69L413.00,268.02L414.42,269.44L415.83,270.94L417.25,272.52L418.67,274.16L420.08,275.86L421.50,277.62L422.92,279.42L424.33,281.26L425.75,283.13L427.17,285.03L428.58,286.94L430.00,288.86L431.42,290.78L432.83,292.71L434.25,294.62L435.67,296.52L437.08,298.39L438.50,300.24L439.92,302.06L441.33,303.84L442.75,305.59L444.17,307.29L445.58,308.94L447.00,310.55L448.42,312.10L449.83,313.60L451.25,315.04L452.67,316.42L454.08,317.75L455.50,319.02L456.92,320.23L458.33,321.38L459.75,322.47L461.17,323.51L462.58,324.48L464.00,325.40L465.42,326.27L466.83,327.08L468.25,327.84L469.67,328.55L471.08,329.21L472.50,329.82L473.92,330.39L475.33,330.92L476.75,331.41L478.17,331.85L479.58,332.27L481.00,332.64L482.42,332.99L483.83,333.31L485.25,333.59L486.67,333.86L488.08,334.09L489.50,334.31L490.92,334.50L492.33,334.67L493.75,334.83L495.17,334.97L496.58,335.10L498.00,335.21L499.42,335.31L500.83,335.40L502.25,335.47L503.67,335.54L505.08,335.60L506.50,335.66L507.92,335.71L509.33,335.75L510.75,335.78L512.17,335.81L513.58,335.84L515.00,335.86L516.42,335.88L517.83,335.90L519.25,335.92L520.67,335.93L522.08,335.94L523.50,335.95L524.92,335.96L526.33,335.97L527.75,335.97L529.17,335.98L530.58,335.98L532.00,335.98L533.42,335.99L534.83,335.99L536.25,335.99L537.67,335.99L539.08,335.99L540.50,336.00L541.92,336.00L543.33,336.00L544.75,336.00L546.17,336.00L547.58,336.00L549.00,336.00L550.42,336.00L551.83,336.00L553.25,336.00L554.67,336.00L556.08,336.00L557.50,336.00L558.92,336.00L560.33,336.00L561.75,336.00L563.17,336.00L564.58,336.00L566.00,336.00L567.42,336.00L568.83,336.00L570.25,336.00L571.67,336.00L573.08,336.00L574.50,336.00L575.92,336.00L577.33,336.00L578.75,336.00L580.17,336.00L581.58,336.00L583.00,336.00L584.42,336.00L585.83,336.00L587.25,336.00L588.67,336.00L590.08,336.00L591.50,336.00L592.92,336.00L594.33,336.00L595.75,336.00L597.17,336.00L598.58,336.00L600.00,336.00L601.42,336.00L602.83,336.00L604.25,336.00L605.67,336.00L607.08,336.00L608.50,336.00L609.92,336.00L611.33,336.00L612.75,336.00L614.17,336.00L615.58,336.00L617.00,336.00L618.42,336.00L619.83,336.00L621.25,336.00L622.67,336.00L624.08,336.00L625.50,336.00L626.92,336.00L628.33,336.00L629.75,336.00L631.17,336.00L632.58,336.00L634.00,336.00L635.42,336.00L636.83,336.00L638.25,336.00L639.67,336.00L641.08,336.00L642.50,336.00L643.92,336.00L645.33,336.00L646.75,336.00L648.17,336.00L649.58,336.00L651.00,336.00L652.42,336.00L653.83,336.00L655.25,336.00L656.67,336.00L658.08,336.00L659.50,336.00L660.92,336.00L662.33,336.00L663.75,336.00L665.17,336.00L666.58,336.00L668.00,336.00L669.42,336.00L670.83,336.00L672.25,336.00L673.67,336.00L675.08,336.00L676.50,336.00L677.92,336.00L679.33,336.00L680.75,336.00L682.17,336.00L683.58,336.00L685.00,336.00L686.42,336.00L687.83,336.00L689.25,336.00L690.67,336.00L692.08,336.00L693.50,336.00L694.92,336.00L696.33,336.00L697.75,336.00L699.17,336.00L700.58,336.00L702.00,336.00L703.42,336.00L704.83,336.00L706.25,336.00L707.67,336.00L709.08,336.00L710.50,336.00L711.92,336.00L713.33,336.00L714.75,336.00L716.17,336.00L717.58,336.00L719.00,336.00L720.42,336.00L721.83,336.00L723.25,336.00L724.67,336.00L726.08,336.00L727.50,336.00L728.92,336.00L730.33,336.00L731.75,336.00L733.17,336.00L734.58,336.00L736.00,336.00" fill="none" stroke="#1c5cab" stroke-width="2" stroke-linejoin="round" stroke-linecap="round"/>
<path d="M56.00,336.00L57.42,336.00L58.83,336.00L60.25,336.00L61.67,336.00L63.08,336.00L64.50,336.00L65.92,336.00L67.33,336.00L68.75,336.00L70.17,336.00L71.58,336.00L73.00,336.00L74.42,336.00L75.83,336.00L77.25,336.00L78.67,336.00L80.08,336.00L81.50,336.00L82.92,336.00L84.33,336.00L85.75,336.00L87.17,336.00L88.58,336.00L90.00,336.00L91.42,336.00L92.83,336.00L94.25,336.00L95.67,336.00L97.08,336.00L98.50,336.00L99.92,336.00L101.33,336.00L102.75,336.00L104.17,336.00L105.58,336.00L107.00,336.00L108.42,336.00L109.83,336.00L111.25,336.00L112.67,336.00L114.08,336.00L115.50,336.00L116.92,336.00L118.33,336.00L119.75,336.00L121.17,336.00L122.58,336.00L124.00,336.00L125.42,336.00L126.83,336.00L128.25,336.00L129.67,336.00L131.08,336.00L132.50,336.00L133.92,336.00L135.33,336.00L136.75,336.00L138.17,336.00L139.58,336.00L141.00,336.00L142.42,336.00L143.83,336.00L145.25,336.00L146.67,336.00L148.08,336.00L149.50,336.00L150.92,336.00L152.33,336.00L153.75,336.00L155.17,336.00L156.58,336.00L158.00,336.00L159.42,336.00L160.83,336.00L162.25,336.00L163.67,336.00L165.08,336.00L166.50,336.00L167.92,336.00L169.33,336.00L170.75,336.00L172.17,336.00L173.58,336.00L175.00,336.00L176.42,336.00L177.83,336.00L179.25,336.00L180.67,336.00L182.08,336.00L183.50,336.00L184.92,336.00L186.33,336.00L187.75,336.00L189.17,336.00L190.58,336.00L192.00,336.00L193.42,336.00L194.83,336.00L196.25,336.00L197.67,336.00L199.08,336.00L200.50,336.00L201.92,336.00L203.33,336.00L204.75,336.00L206.17,336.00L207.58,336.00L209.00,336.00L210.42,336.00L211.83,336.00L213.25,336.00L214.67,336.00L216.08,336.00L217.50,336.00L218.92,336.00L220.33,336.00L221.75,336.00L223.17,336.00L224.58,336.00L226.00,336.00L227.42,336.00L228.83,336.00L230.25,336.00L231.67,336.00L233.08,336.00L234.50,336.00L235.92,336.00L237.33,336.00L238.75,336.00L240.17,336.00L241.58,336.00L243.00,336.00L244.42,336.00L245.83,336.00L247.25,336.00L248.67,336.00L250.08,336.00L251.50,336.00L252.92,336.00L254.33,336.00L255.75,336.00L257.17,336.00L258.58,336.00L260.00,336.00L261.42,336.00L262.83,336.00L264.25,336.00L265.67,336.00L267.08,336.00L268.50,336.00L269.92,336.00L271.33,336.00L272.75,336.00L274.17,336.00L275.58,336.00L277.00,336.00L278.42,336.00L279.83,336.00L281.25,336.00L282.67,336.00L284.08,336.00L285.50,336.00L286.92,336.00L288.33,336.00L289.75,336.00L291.17,336.00L292.58,336.00L294.00,336.00L295.42,336.00L296.83,336.00L298.25,336.00L299.67,336.00L301.08,336.00L302.50,336.00L303.92,336.00L305.33,336.00L306.75,336.00L308.17,336.00L309.58,336.00L311.00,336.00L312.42,336.00L313.83,336.00L315.25,336.00L316.67,336.00L318.08,336.00L319.50,336.00L320.92,336.00L322.33,336.00L323.75,336.00L325.17,336.00L326.58,336.00L328.00,336.00L329.42,336.00L330.83,336.00L332.25,336.00L333.67,336.00L335.08,336.00L336.50,336.00L337.92,336.00L339.33,336.00L340.75,336.00L342.17,336.00L343.58,336.00L345.00,336.00L346.42,335.99L347.83,335.99L349.25,335.98L350.67,335.97L352.08,335.94L353.50,335.90L354.92,335.84L356.33,335.74L357.75,335.57L359.17,335.32L360.58,334.94L362.00,334.37L363.42,333.54L364.83,332.36L366.25,330.70L367.67,328.43L369.08,325.36L370.50,321.32L371.92,316.09L373.33,309.47L374.75,301.27L376.17,291.32L377.58,279.52L379.00,265.83L380.42,250.34L381.83,233.23L383.25,214.83L384.67,195.60L386.08,176.12L387.50,157.07L388.92,139.19L390.33,123.24L391.75,109.95L393.17,99.95L394.58,93.74L396.00,91.63L397.42,93.74L398.83,99.95L400.25,109.95L401.67,123.24L403.08,139.19L404.50,157.07L405.92,176.12L407.33,195.60L408.75,214.83L410.17,233.23L411.58,250.34L413.00,265.83L414.42,279.52L415.83,291.32L417.25,301.27L418.67,309.47L420.08,316.09L421.50,321.32L422.92,325.36L424.33,328.43L425.75,330.70L427.17,332.36L428.58,333.54L430.00,334.37L431.42,334.94L432.83,335.32L434.25,335.57L435.67,335.74L437.08,335.84L438.50,335.90L439.92,335.94L441.33,335.97L442.75,335.98L444.17,335.99L445.58,335.99L447.00,336.00L448.42,336.00L449.83,336.00L451.25,336.00L452.67,336.00L454.08,336.00L455.50,336.00L456.92,336.00L458.33,336.00L459.75,336.00L461.17,336.00L462.58,336.00L464.00,336.00L465.42,336.00L466.83,336.00L468.25,336.00L469.67,336.00L471.08,336.00L472.50,336.00L473.92,336.00L475.33,336.00L476.75,336.00L478.17,336.00L479.58,336.00L481.00,336.00L482.42,336.00L483.83,336.00L485.25,336.00L486.67,336.00L488.08,336.00L489.50,336.00L490.92,336.00L492.33,336.00L493.75,336.00L495.17,336.00L496.58,336.00L498.00,336.00L499.42,336.00L500.83,336.00L502.25,336.00L503.67,336.00L505.08,336.00L506.50,336.00L507.92,336.00L509.33,336.00L510.75,336.00L512.17,336.00L513.58,336.00L515.00,336.00L516.42,336.00L517.83,336.00L519.25,336.00L520.67,336.00L522.08,336.00L523.50,336.00L524.92,336.00L526.33,336.00L527.75,336.00L529.17,336.00L530.58,336.00L532.00,336.00L533.42,336.00L534.83,336.00L536.25,336.00L537.67,336.00L539.08,336.00L540.50,336.00L541.92,336.00L543.33,336.00L544.75,336.00L546.17,336.00L547.58,336.00L549.00,336.00L550.42,336.00L551.83,336.00L553.25,336.00L554.67,336.00L556.08,336.00L557.50,336.00L558.92,336.00L560.33,336.00L561.75,336.00L563.17,336.00L564.58,336.00L566.00,336.00L567.42,336.00L568.83,336.00L570.25,336.00L571.67,336.00L573.08,336.00L574.50,336.00L575.92,336.00L577.33,336.00L578.75,336.00L580.17,336.00L581.58,336.00L583.00,336.00L584.42,336.00L585.83,336.00L587.25,336.00L588.67,336.00L590.08,336.00L591.50,336.00L592.92,336.00L594.33,336.00L595.75,336.00L597.17,336.00L598.58,336.00L600.00,336.00L601.42,336.00L602.83,336.00L604.25,336.00L605.67,336.00L607.08,336.00L608.50,336.00L609.92,336.00L611.33,336.00L612.75,336.00L614.17,336.00L615.58,336.00L617.00,336.00L618.42,336.00L619.83,336.00L621.25,336.00L622.67,336.00L624.08,336.00L625.50,336.00L626.92,336.00L628.33,336.00L629.75,336.00L631.17,336.00L632.58,336.00L634.00,336.00L635.42,336.00L636.83,336.00L638.25,336.00L639.67,336.00L641.08,336.00L642.50,336.00L643.92,336.00L645.33,336.00L646.75,336.00L648.17,336.00L649.58,336.00L651.00,336.00L652.42,336.00L653.83,336.00L655.25,336.00L656.67,336.00L658.08,336.00L659.50,336.00L660.92,336.00L662.33,336.00L663.75,336.00L665.17,336.00L666.58,336.00L668.00,336.00L669.42,336.00L670.83,336.00L672.25,336.00L673.67,336.00L675.08,336.00L676.50,336.00L677.92,336.00L679.33,336.00L680.75,336.00L682.17,336.00L683.58,336.00L685.00,336.00L686.42,336.00L687.83,336.00L689.25,336.00L690.67,336.00L692.08,336.00L693.50,336.00L694.92,336.00L696.33,336.00L697.75,336.00L699.17,336.00L700.58,336.00L702.00,336.00L703.42,336.00L704.83,336.00L706.25,336.00L707.67,336.00L709.08,336.00L710.50,336.00L711.92,336.00L713.33,336.00L714.75,336.00L716.17,336.00L717.58,336.00L719.00,336.00L720.42,336.00L721.83,336.00L723.25,336.00L724.67,336.00L726.08,336.00L727.50,336.00L728.92,336.00L730.33,336.00L731.75,336.00L733.17,336.00L734.58,336.00L736.00,336.00" fill="none" stroke="#0d366b" stroke-width="2" stroke-linejoin="round" stroke-linecap="round"/>
<text x="729.2" y="316.3076923076923" font-size="10" fill="#52514e" text-anchor="end" font-weight="normal">n = 3: exactly flat (Archimedes' hat-box)</text>
<text x="425.5" y="95.63076923076922" font-size="10" fill="#52514e" text-anchor="start" font-weight="normal">n = 1000: σ = 1ᐟ√n ≈ 0.032</text>
</svg>
