<svg xmlns="http://www.w3.org/2000/svg" width="760" height="380" viewBox="0 0 760 380" font-family="system-ui, -apple-system, 'Segoe UI', sans-serif">
<rect width="760" height="380" fill="#fcfcfb" rx="8"/>
<text x="20" y="26" font-size="14" fill="#0b0b0b" text-anchor="start" font-weight="600">Share of the ball's volume within radius r — the mass flees to the skin</text>
<text x="20" y="43" font-size="11" fill="#52514e" text-anchor="start" font-weight="normal">P(R ≤ r) = rⁿ; dots mark the median radius 2⁻¹ᐟⁿ — at n = 100, half the volume lies beyond r = 0.993</text>
<rect x="20" y="54" width="10" height="10" rx="2" fill="#86b6ef"/>
<text x="34" y="63" font-size="10.5" fill="#52514e" text-anchor="start" font-weight="normal">n = 1</text>
<rect x="80" y="54" width="10" height="10" rx="2" fill="#5598e7"/>
<text x="94" y="63" font-size="10.5" fill="#52514e" text-anchor="start" font-weight="normal">n = 3</text>
<rect x="140" y="54" width="10" height="10" rx="2" fill="#2a78d6"/>
<text x="154" y="63" font-size="10.5" fill="#52514e" text-anchor="start" font-weight="normal">n = 10</text>
<rect x="205.6" y="54" width="10" height="10" rx="2" fill="#1c5cab"/>
<text x="219.6" y="63" font-size="10.5" fill="#52514e" text-anchor="start" font-weight="normal">n = 30</text>
<rect x="271.2" y="54" width="10" height="10" rx="2" fill="#104281"/>
<text x="285.2" y="63" font-size="10.5" fill="#52514e" text-anchor="start" font-weight="normal">n = 100</text>
<line x1="56" y1="336" x2="720" y2="336" stroke="#e1e0d9" stroke-width="1"/>
<text x="48" y="339.5" font-size="10.5" fill="#898781" text-anchor="end" font-weight="normal">0%</text>
<line x1="56" y1="273" x2="720" y2="273" stroke="#e1e0d9" stroke-width="1"/>
<text x="48" y="276.5" font-size="10.5" fill="#898781" text-anchor="end" font-weight="normal">25%</text>
<line x1="56" y1="210" x2="720" y2="210" stroke="#e1e0d9" stroke-width="1"/>
<text x="48" y="213.5" font-size="10.5" fill="#898781" text-anchor="end" font-weight="normal">50%</text>
<line x1="56" y1="147" x2="720" y2="147" stroke="#e1e0d9" stroke-width="1"/>
<text x="48" y="150.5" font-size="10.5" fill="#898781" text-anchor="end" font-weight="normal">75%</text>
<line x1="56" y1="84" x2="720" y2="84" stroke="#e1e0d9" stroke-width="1"/>
<text x="48" y="87.5" font-size="10.5" fill="#898781" text-anchor="end" font-weight="normal">100%</text>
<text x="56" y="352" font-size="10.5" fill="#898781" text-anchor="middle" font-weight="normal">0.00</text>
<text x="222" y="352" font-size="10.5" fill="#898781" text-anchor="middle" font-weight="normal">0.25</text>
<text x="388" y="352" font-size="10.5" fill="#898781" text-anchor="middle" font-weight="normal">0.50</text>
<text x="554" y="352" font-size="10.5" fill="#898781" text-anchor="middle" font-weight="normal">0.75</text>
<text x="720" y="352" font-size="10.5" fill="#898781" text-anchor="middle" font-weight="normal">1.00</text>
<line x1="56" y1="336" x2="720" y2="336" stroke="#c3c2b7" stroke-width="1.5"/>
<text x="388" y="372" font-size="10.5" fill="#898781" text-anchor="middle" font-weight="normal">radius r</text>
<path d="M56.00,336.00L58.77,334.95L61.53,333.90L64.30,332.85L67.07,331.80L69.83,330.75L72.60,329.70L75.37,328.65L78.13,327.60L80.90,326.55L83.67,325.50L86.43,324.45L89.20,323.40L91.97,322.35L94.73,321.30L97.50,320.25L100.27,319.20L103.03,318.15L105.80,317.10L108.57,316.05L111.33,315.00L114.10,313.95L116.87,312.90L119.63,311.85L122.40,310.80L125.17,309.75L127.93,308.70L130.70,307.65L133.47,306.60L136.23,305.55L139.00,304.50L141.77,303.45L144.53,302.40L147.30,301.35L150.07,300.30L152.83,299.25L155.60,298.20L158.37,297.15L161.13,296.10L163.90,295.05L166.67,294.00L169.43,292.95L172.20,291.90L174.97,290.85L177.73,289.80L180.50,288.75L183.27,287.70L186.03,286.65L188.80,285.60L191.57,284.55L194.33,283.50L197.10,282.45L199.87,281.40L202.63,280.35L205.40,279.30L208.17,278.25L210.93,277.20L213.70,276.15L216.47,275.10L219.23,274.05L222.00,273.00L224.77,271.95L227.53,270.90L230.30,269.85L233.07,268.80L235.83,267.75L238.60,266.70L241.37,265.65L244.13,264.60L246.90,263.55L249.67,262.50L252.43,261.45L255.20,260.40L257.97,259.35L260.73,258.30L263.50,257.25L266.27,256.20L269.03,255.15L271.80,254.10L274.57,253.05L277.33,252.00L280.10,250.95L282.87,249.90L285.63,248.85L288.40,247.80L291.17,246.75L293.93,245.70L296.70,244.65L299.47,243.60L302.23,242.55L305.00,241.50L307.77,240.45L310.53,239.40L313.30,238.35L316.07,237.30L318.83,236.25L321.60,235.20L324.37,234.15L327.13,233.10L329.90,232.05L332.67,231.00L335.43,229.95L338.20,228.90L340.97,227.85L343.73,226.80L346.50,225.75L349.27,224.70L352.03,223.65L354.80,222.60L357.57,221.55L360.33,220.50L363.10,219.45L365.87,218.40L368.63,217.35L371.40,216.30L374.17,215.25L376.93,214.20L379.70,213.15L382.47,212.10L385.23,211.05L388.00,210.00L390.77,208.95L393.53,207.90L396.30,206.85L399.07,205.80L401.83,204.75L404.60,203.70L407.37,202.65L410.13,201.60L412.90,200.55L415.67,199.50L418.43,198.45L421.20,197.40L423.97,196.35L426.73,195.30L429.50,194.25L432.27,193.20L435.03,192.15L437.80,191.10L440.57,190.05L443.33,189.00L446.10,187.95L448.87,186.90L451.63,185.85L454.40,184.80L457.17,183.75L459.93,182.70L462.70,181.65L465.47,180.60L468.23,179.55L471.00,178.50L473.77,177.45L476.53,176.40L479.30,175.35L482.07,174.30L484.83,173.25L487.60,172.20L490.37,171.15L493.13,170.10L495.90,169.05L498.67,168.00L501.43,166.95L504.20,165.90L506.97,164.85L509.73,163.80L512.50,162.75L515.27,161.70L518.03,160.65L520.80,159.60L523.57,158.55L526.33,157.50L529.10,156.45L531.87,155.40L534.63,154.35L537.40,153.30L540.17,152.25L542.93,151.20L545.70,150.15L548.47,149.10L551.23,148.05L554.00,147.00L556.77,145.95L559.53,144.90L562.30,143.85L565.07,142.80L567.83,141.75L570.60,140.70L573.37,139.65L576.13,138.60L578.90,137.55L581.67,136.50L584.43,135.45L587.20,134.40L589.97,133.35L592.73,132.30L595.50,131.25L598.27,130.20L601.03,129.15L603.80,128.10L606.57,127.05L609.33,126.00L612.10,124.95L614.87,123.90L617.63,122.85L620.40,121.80L623.17,120.75L625.93,119.70L628.70,118.65L631.47,117.60L634.23,116.55L637.00,115.50L639.77,114.45L642.53,113.40L645.30,112.35L648.07,111.30L650.83,110.25L653.60,109.20L656.37,108.15L659.13,107.10L661.90,106.05L664.67,105.00L667.43,103.95L670.20,102.90L672.97,101.85L675.73,100.80L678.50,99.75L681.27,98.70L684.03,97.65L686.80,96.60L689.57,95.55L692.33,94.50L695.10,93.45L697.87,92.40L700.63,91.35L703.40,90.30L706.17,89.25L708.93,88.20L711.70,87.15L714.47,86.10L717.23,85.05L720.00,84.00" fill="none" stroke="#86b6ef" stroke-width="2" stroke-linejoin="round" stroke-linecap="round"/>
<circle cx="388" cy="210" r="4" fill="#86b6ef" stroke="#fcfcfb" stroke-width="2"/>
<path d="M56.00,336.00L58.77,336.00L61.53,336.00L64.30,336.00L67.07,336.00L69.83,336.00L72.60,336.00L75.37,335.99L78.13,335.99L80.90,335.99L83.67,335.98L86.43,335.98L89.20,335.97L91.97,335.96L94.73,335.95L97.50,335.94L100.27,335.93L103.03,335.91L105.80,335.89L108.57,335.87L111.33,335.85L114.10,335.83L116.87,335.81L119.63,335.78L122.40,335.75L125.17,335.72L127.93,335.68L130.70,335.64L133.47,335.60L136.23,335.56L139.00,335.51L141.77,335.46L144.53,335.40L147.30,335.34L150.07,335.28L152.83,335.22L155.60,335.15L158.37,335.08L161.13,335.00L163.90,334.92L166.67,334.83L169.43,334.74L172.20,334.65L174.97,334.55L177.73,334.45L180.50,334.34L183.27,334.23L186.03,334.11L188.80,333.98L191.57,333.86L194.33,333.72L197.10,333.58L199.87,333.44L202.63,333.29L205.40,333.13L208.17,332.97L210.93,332.80L213.70,332.62L216.47,332.44L219.23,332.26L222.00,332.06L224.77,331.86L227.53,331.66L230.30,331.44L233.07,331.22L235.83,330.99L238.60,330.76L241.37,330.52L244.13,330.27L246.90,330.01L249.67,329.75L252.43,329.48L255.20,329.20L257.97,328.91L260.73,328.61L263.50,328.31L266.27,328.00L269.03,327.68L271.80,327.35L274.57,327.01L277.33,326.67L280.10,326.31L282.87,325.95L285.63,325.58L288.40,325.20L291.17,324.81L293.93,324.41L296.70,324.00L299.47,323.58L302.23,323.15L305.00,322.71L307.77,322.26L310.53,321.81L313.30,321.34L316.07,320.86L318.83,320.37L321.60,319.87L324.37,319.36L327.13,318.84L329.90,318.31L332.67,317.77L335.43,317.22L338.20,316.66L340.97,316.08L343.73,315.49L346.50,314.90L349.27,314.29L352.03,313.67L354.80,313.04L357.57,312.39L360.33,311.74L363.10,311.07L365.87,310.39L368.63,309.70L371.40,308.99L374.17,308.28L376.93,307.55L379.70,306.80L382.47,306.05L385.23,305.28L388.00,304.50L390.77,303.71L393.53,302.90L396.30,302.08L399.07,301.24L401.83,300.40L404.60,299.53L407.37,298.66L410.13,297.77L412.90,296.87L415.67,295.95L418.43,295.02L421.20,294.07L423.97,293.11L426.73,292.14L429.50,291.15L432.27,290.15L435.03,289.13L437.80,288.09L440.57,287.04L443.33,285.98L446.10,284.90L448.87,283.80L451.63,282.69L454.40,281.57L457.17,280.43L459.93,279.27L462.70,278.09L465.47,276.90L468.23,275.70L471.00,274.48L473.77,273.24L476.53,271.98L479.30,270.71L482.07,269.42L484.83,268.12L487.60,266.79L490.37,265.46L493.13,264.10L495.90,262.72L498.67,261.33L501.43,259.92L504.20,258.50L506.97,257.05L509.73,255.59L512.50,254.11L515.27,252.61L518.03,251.10L520.80,249.56L523.57,248.01L526.33,246.44L529.10,244.85L531.87,243.24L534.63,241.61L537.40,239.97L540.17,238.30L542.93,236.62L545.70,234.92L548.47,233.19L551.23,231.45L554.00,229.69L556.77,227.91L559.53,226.10L562.30,224.28L565.07,222.44L567.83,220.58L570.60,218.70L573.37,216.80L576.13,214.87L578.90,212.93L581.67,210.97L584.43,208.98L587.20,206.98L589.97,204.95L592.73,202.90L595.50,200.83L598.27,198.74L601.03,196.63L603.80,194.50L606.57,192.34L609.33,190.17L612.10,187.97L614.87,185.75L617.63,183.51L620.40,181.24L623.17,178.95L625.93,176.64L628.70,174.31L631.47,171.96L634.23,169.58L637.00,167.18L639.77,164.76L642.53,162.31L645.30,159.84L648.07,157.35L650.83,154.83L653.60,152.29L656.37,149.73L659.13,147.14L661.90,144.53L664.67,141.90L667.43,139.24L670.20,136.55L672.97,133.85L675.73,131.11L678.50,128.36L681.27,125.58L684.03,122.77L686.80,119.94L689.57,117.09L692.33,114.21L695.10,111.30L697.87,108.37L700.63,105.41L703.40,102.43L706.17,99.42L708.93,96.39L711.70,93.33L714.47,90.25L717.23,87.14L720.00,84.00" fill="none" stroke="#5598e7" stroke-width="2" stroke-linejoin="round" stroke-linecap="round"/>
<circle cx="583.0171492534423" cy="210" r="4" fill="#5598e7" stroke="#fcfcfb" stroke-width="2"/>
<path d="M56.00,336.00L58.77,336.00L61.53,336.00L64.30,336.00L67.07,336.00L69.83,336.00L72.60,336.00L75.37,336.00L78.13,336.00L80.90,336.00L83.67,336.00L86.43,336.00L89.20,336.00L91.97,336.00L94.73,336.00L97.50,336.00L100.27,336.00L103.03,336.00L105.80,336.00L108.57,336.00L111.33,336.00L114.10,336.00L116.87,336.00L119.63,336.00L122.40,336.00L125.17,336.00L127.93,336.00L130.70,336.00L133.47,336.00L136.23,336.00L139.00,336.00L141.77,336.00L144.53,336.00L147.30,336.00L150.07,336.00L152.83,336.00L155.60,336.00L158.37,336.00L161.13,336.00L163.90,336.00L166.67,336.00L169.43,336.00L172.20,336.00L174.97,336.00L177.73,336.00L180.50,336.00L183.27,336.00L186.03,336.00L188.80,336.00L191.57,336.00L194.33,336.00L197.10,336.00L199.87,336.00L202.63,336.00L205.40,336.00L208.17,336.00L210.93,336.00L213.70,336.00L216.47,336.00L219.23,336.00L222.00,336.00L224.77,336.00L227.53,336.00L230.30,336.00L233.07,336.00L235.83,336.00L238.60,336.00L241.37,336.00L244.13,336.00L246.90,336.00L249.67,336.00L252.43,336.00L255.20,336.00L257.97,336.00L260.73,336.00L263.50,336.00L266.27,336.00L269.03,336.00L271.80,336.00L274.57,336.00L277.33,336.00L280.10,336.00L282.87,335.99L285.63,335.99L288.40,335.99L291.17,335.99L293.93,335.99L296.70,335.99L299.47,335.99L302.23,335.99L305.00,335.99L307.77,335.98L310.53,335.98L313.30,335.98L316.07,335.98L318.83,335.98L321.60,335.97L324.37,335.97L327.13,335.97L329.90,335.96L332.67,335.96L335.43,335.96L338.20,335.95L340.97,335.95L343.73,335.94L346.50,335.94L349.27,335.93L352.03,335.92L354.80,335.91L357.57,335.91L360.33,335.90L363.10,335.89L365.87,335.88L368.63,335.87L371.40,335.85L374.17,335.84L376.93,335.82L379.70,335.81L382.47,335.79L385.23,335.77L388.00,335.75L390.77,335.73L393.53,335.71L396.30,335.68L399.07,335.66L401.83,335.63L404.60,335.60L407.37,335.57L410.13,335.53L412.90,335.49L415.67,335.45L418.43,335.41L421.20,335.36L423.97,335.31L426.73,335.26L429.50,335.20L432.27,335.14L435.03,335.07L437.80,335.00L440.57,334.93L443.33,334.85L446.10,334.77L448.87,334.68L451.63,334.58L454.40,334.48L457.17,334.37L459.93,334.25L462.70,334.13L465.47,334.00L468.23,333.86L471.00,333.71L473.77,333.55L476.53,333.38L479.30,333.21L482.07,333.02L484.83,332.82L487.60,332.61L490.37,332.38L493.13,332.15L495.90,331.90L498.67,331.63L501.43,331.35L504.20,331.05L506.97,330.74L509.73,330.41L512.50,330.06L515.27,329.69L518.03,329.29L520.80,328.88L523.57,328.45L526.33,327.99L529.10,327.50L531.87,326.99L534.63,326.46L537.40,325.89L540.17,325.29L542.93,324.67L545.70,324.00L548.47,323.31L551.23,322.58L554.00,321.81L556.77,321.00L559.53,320.15L562.30,319.26L565.07,318.32L567.83,317.34L570.60,316.30L573.37,315.22L576.13,314.08L578.90,312.88L581.67,311.63L584.43,310.32L587.20,308.94L589.97,307.50L592.73,305.99L595.50,304.40L598.27,302.75L601.03,301.01L603.80,299.19L606.57,297.29L609.33,295.30L612.10,293.22L614.87,291.04L617.63,288.77L620.40,286.39L623.17,283.90L625.93,281.30L628.70,278.59L631.47,275.75L634.23,272.80L637.00,269.70L639.77,266.48L642.53,263.11L645.30,259.60L648.07,255.94L650.83,252.12L653.60,248.13L656.37,243.98L659.13,239.65L661.90,235.14L664.67,230.44L667.43,225.54L670.20,220.44L672.97,215.12L675.73,209.59L678.50,203.84L681.27,197.84L684.03,191.61L686.80,185.12L689.57,178.37L692.33,171.35L695.10,164.05L697.87,156.46L700.63,148.57L703.40,140.36L706.17,131.84L708.93,122.99L711.70,113.79L714.47,104.23L717.23,94.31L720.00,84.00" fill="none" stroke="#2a78d6" stroke-width="2" stroke-linejoin="round" stroke-linecap="round"/>
<circle cx="675.5339063804402" cy="210" r="4" fill="#2a78d6" stroke="#fcfcfb" stroke-width="2"/>
<path d="M56.00,336.00L58.77,336.00L61.53,336.00L64.30,336.00L67.07,336.00L69.83,336.00L72.60,336.00L75.37,336.00L78.13,336.00L80.90,336.00L83.67,336.00L86.43,336.00L89.20,336.00L91.97,336.00L94.73,336.00L97.50,336.00L100.27,336.00L103.03,336.00L105.80,336.00L108.57,336.00L111.33,336.00L114.10,336.00L116.87,336.00L119.63,336.00L122.40,336.00L125.17,336.00L127.93,336.00L130.70,336.00L133.47,336.00L136.23,336.00L139.00,336.00L141.77,336.00L144.53,336.00L147.30,336.00L150.07,336.00L152.83,336.00L155.60,336.00L158.37,336.00L161.13,336.00L163.90,336.00L166.67,336.00L169.43,336.00L172.20,336.00L174.97,336.00L177.73,336.00L180.50,336.00L183.27,336.00L186.03,336.00L188.80,336.00L191.57,336.00L194.33,336.00L197.10,336.00L199.87,336.00L202.63,336.00L205.40,336.00L208.17,336.00L210.93,336.00L213.70,336.00L216.47,336.00L219.23,336.00L222.00,336.00L224.77,336.00L227.53,336.00L230.30,336.00L233.07,336.00L235.83,336.00L238.60,336.00L241.37,336.00L244.13,336.00L246.90,336.00L249.67,336.00L252.43,336.00L255.20,336.00L257.97,336.00L260.73,336.00L263.50,336.00L266.27,336.00L269.03,336.00L271.80,336.00L274.57,336.00L277.33,336.00L280.10,336.00L282.87,336.00L285.63,336.00L288.40,336.00L291.17,336.00L293.93,336.00L296.70,336.00L299.47,336.00L302.23,336.00L305.00,336.00L307.77,336.00L310.53,336.00L313.30,336.00L316.07,336.00L318.83,336.00L321.60,336.00L324.37,336.00L327.13,336.00L329.90,336.00L332.67,336.00L335.43,336.00L338.20,336.00L340.97,336.00L343.73,336.00L346.50,336.00L349.27,336.00L352.03,336.00L354.80,336.00L357.57,336.00L360.33,336.00L363.10,336.00L365.87,336.00L368.63,336.00L371.40,336.00L374.17,336.00L376.93,336.00L379.70,336.00L382.47,336.00L385.23,336.00L388.00,336.00L390.77,336.00L393.53,336.00L396.30,336.00L399.07,336.00L401.83,336.00L404.60,336.00L407.37,336.00L410.13,336.00L412.90,336.00L415.67,336.00L418.43,336.00L421.20,336.00L423.97,336.00L426.73,336.00L429.50,336.00L432.27,336.00L435.03,336.00L437.80,336.00L440.57,336.00L443.33,336.00L446.10,336.00L448.87,336.00L451.63,336.00L454.40,336.00L457.17,336.00L459.93,336.00L462.70,336.00L465.47,336.00L468.23,336.00L471.00,336.00L473.77,336.00L476.53,336.00L479.30,336.00L482.07,336.00L484.83,336.00L487.60,336.00L490.37,336.00L493.13,336.00L495.90,336.00L498.67,336.00L501.43,336.00L504.20,336.00L506.97,336.00L509.73,336.00L512.50,336.00L515.27,336.00L518.03,336.00L520.80,335.99L523.57,335.99L526.33,335.99L529.10,335.99L531.87,335.99L534.63,335.99L537.40,335.98L540.17,335.98L542.93,335.98L545.70,335.97L548.47,335.97L551.23,335.96L554.00,335.95L556.77,335.95L559.53,335.94L562.30,335.93L565.07,335.91L567.83,335.90L570.60,335.88L573.37,335.86L576.13,335.83L578.90,335.81L581.67,335.77L584.43,335.73L587.20,335.69L589.97,335.64L592.73,335.57L595.50,335.50L598.27,335.42L601.03,335.33L603.80,335.21L606.57,335.09L609.33,334.94L612.10,334.77L614.87,334.57L617.63,334.34L620.40,334.08L623.17,333.77L625.93,333.42L628.70,333.02L631.47,332.56L634.23,332.02L637.00,331.41L639.77,330.71L642.53,329.90L645.30,328.98L648.07,327.92L650.83,326.71L653.60,325.32L656.37,323.73L659.13,321.91L661.90,319.84L664.67,317.48L667.43,314.78L670.20,311.70L672.97,308.19L675.73,304.19L678.50,299.65L681.27,294.47L684.03,288.59L686.80,281.91L689.57,274.32L692.33,265.71L695.10,255.94L697.87,244.86L700.63,232.31L703.40,218.09L706.17,202.00L708.93,183.80L711.70,163.21L714.47,139.95L717.23,113.67L720.00,84.00" fill="none" stroke="#1c5cab" stroke-width="2" stroke-linejoin="round" stroke-linecap="round"/>
<circle cx="704.8342190403392" cy="210" r="4" fill="#1c5cab" stroke="#fcfcfb" stroke-width="2"/>
<path d="M56.00,336.00L58.77,336.00L61.53,336.00L64.30,336.00L67.07,336.00L69.83,336.00L72.60,336.00L75.37,336.00L78.13,336.00L80.90,336.00L83.67,336.00L86.43,336.00L89.20,336.00L91.97,336.00L94.73,336.00L97.50,336.00L100.27,336.00L103.03,336.00L105.80,336.00L108.57,336.00L111.33,336.00L114.10,336.00L116.87,336.00L119.63,336.00L122.40,336.00L125.17,336.00L127.93,336.00L130.70,336.00L133.47,336.00L136.23,336.00L139.00,336.00L141.77,336.00L144.53,336.00L147.30,336.00L150.07,336.00L152.83,336.00L155.60,336.00L158.37,336.00L161.13,336.00L163.90,336.00L166.67,336.00L169.43,336.00L172.20,336.00L174.97,336.00L177.73,336.00L180.50,336.00L183.27,336.00L186.03,336.00L188.80,336.00L191.57,336.00L194.33,336.00L197.10,336.00L199.87,336.00L202.63,336.00L205.40,336.00L208.17,336.00L210.93,336.00L213.70,336.00L216.47,336.00L219.23,336.00L222.00,336.00L224.77,336.00L227.53,336.00L230.30,336.00L233.07,336.00L235.83,336.00L238.60,336.00L241.37,336.00L244.13,336.00L246.90,336.00L249.67,336.00L252.43,336.00L255.20,336.00L257.97,336.00L260.73,336.00L263.50,336.00L266.27,336.00L269.03,336.00L271.80,336.00L274.57,336.00L277.33,336.00L280.10,336.00L282.87,336.00L285.63,336.00L288.40,336.00L291.17,336.00L293.93,336.00L296.70,336.00L299.47,336.00L302.23,336.00L305.00,336.00L307.77,336.00L310.53,336.00L313.30,336.00L316.07,336.00L318.83,336.00L321.60,336.00L324.37,336.00L327.13,336.00L329.90,336.00L332.67,336.00L335.43,336.00L338.20,336.00L340.97,336.00L343.73,336.00L346.50,336.00L349.27,336.00L352.03,336.00L354.80,336.00L357.57,336.00L360.33,336.00L363.10,336.00L365.87,336.00L368.63,336.00L371.40,336.00L374.17,336.00L376.93,336.00L379.70,336.00L382.47,336.00L385.23,336.00L388.00,336.00L390.77,336.00L393.53,336.00L396.30,336.00L399.07,336.00L401.83,336.00L404.60,336.00L407.37,336.00L410.13,336.00L412.90,336.00L415.67,336.00L418.43,336.00L421.20,336.00L423.97,336.00L426.73,336.00L429.50,336.00L432.27,336.00L435.03,336.00L437.80,336.00L440.57,336.00L443.33,336.00L446.10,336.00L448.87,336.00L451.63,336.00L454.40,336.00L457.17,336.00L459.93,336.00L462.70,336.00L465.47,336.00L468.23,336.00L471.00,336.00L473.77,336.00L476.53,336.00L479.30,336.00L482.07,336.00L484.83,336.00L487.60,336.00L490.37,336.00L493.13,336.00L495.90,336.00L498.67,336.00L501.43,336.00L504.20,336.00L506.97,336.00L509.73,336.00L512.50,336.00L515.27,336.00L518.03,336.00L520.80,336.00L523.57,336.00L526.33,336.00L529.10,336.00L531.87,336.00L534.63,336.00L537.40,336.00L540.17,336.00L542.93,336.00L545.70,336.00L548.47,336.00L551.23,336.00L554.00,336.00L556.77,336.00L559.53,336.00L562.30,336.00L565.07,336.00L567.83,336.00L570.60,336.00L573.37,336.00L576.13,336.00L578.90,336.00L581.67,336.00L584.43,336.00L587.20,336.00L589.97,336.00L592.73,336.00L595.50,336.00L598.27,336.00L601.03,336.00L603.80,336.00L606.57,336.00L609.33,336.00L612.10,336.00L614.87,336.00L617.63,336.00L620.40,336.00L623.17,336.00L625.93,336.00L628.70,336.00L631.47,336.00L634.23,336.00L637.00,336.00L639.77,336.00L642.53,336.00L645.30,336.00L648.07,336.00L650.83,336.00L653.60,335.99L656.37,335.99L659.13,335.98L661.90,335.97L664.67,335.96L667.43,335.93L670.20,335.90L672.97,335.84L675.73,335.75L678.50,335.60L681.27,335.38L684.03,335.04L686.80,334.51L689.57,333.69L692.33,332.43L695.10,330.49L697.87,327.51L700.63,322.94L703.40,315.96L706.17,305.31L708.93,289.07L711.70,264.37L714.47,226.86L717.23,170.02L720.00,84.00" fill="none" stroke="#104281" stroke-width="2" stroke-linejoin="round" stroke-linecap="round"/>
<circle cx="715.4134169701919" cy="210" r="4" fill="#104281" stroke="#fcfcfb" stroke-width="2"/>
<text x="342.16" y="217.12" font-size="10.5" fill="#52514e" text-anchor="end" font-weight="normal">n = 1</text>
<text x="488.24" y="255.55100800000002" font-size="10.5" fill="#52514e" text-anchor="end" font-weight="normal">n = 3</text>
<text x="634.32" y="257.81775404563064" font-size="10.5" fill="#52514e" text-anchor="end" font-weight="normal">n = 10</text>
</svg>
