<svg xmlns="http://www.w3.org/2000/svg" width="760" height="380" viewBox="0 0 760 380" font-family="system-ui, -apple-system, 'Segoe UI', sans-serif">
<rect width="760" height="380" fill="#fcfcfb" rx="8"/>
<text x="20" y="26" font-size="14" fill="#0b0b0b" text-anchor="start" font-weight="600">How much volume lives in the outer skin of thickness εr</text>
<text x="20" y="43" font-size="11" fill="#52514e" text-anchor="start" font-weight="normal">1 − (1−ε)ⁿ — every fixed skin thickness ends up holding everything; n on a log scale</text>
<rect x="20" y="54" width="10" height="10" rx="2" fill="#6da7ec"/>
<text x="34" y="63" font-size="10.5" fill="#52514e" text-anchor="start" font-weight="normal">ε = 1%</text>
<rect x="85.6" y="54" width="10" height="10" rx="2" fill="#2a78d6"/>
<text x="99.6" y="63" font-size="10.5" fill="#52514e" text-anchor="start" font-weight="normal">ε = 5%</text>
<rect x="151.2" y="54" width="10" height="10" rx="2" fill="#184f95"/>
<text x="165.2" y="63" font-size="10.5" fill="#52514e" text-anchor="start" font-weight="normal">ε = 10%</text>
<line x1="56" y1="336" x2="640" y2="336" stroke="#e1e0d9" stroke-width="1"/>
<text x="48" y="339.5" font-size="10.5" fill="#898781" text-anchor="end" font-weight="normal">0%</text>
<line x1="56" y1="273" x2="640" y2="273" stroke="#e1e0d9" stroke-width="1"/>
<text x="48" y="276.5" font-size="10.5" fill="#898781" text-anchor="end" font-weight="normal">25%</text>
<line x1="56" y1="210" x2="640" y2="210" stroke="#e1e0d9" stroke-width="1"/>
<text x="48" y="213.5" font-size="10.5" fill="#898781" text-anchor="end" font-weight="normal">50%</text>
<line x1="56" y1="147" x2="640" y2="147" stroke="#e1e0d9" stroke-width="1"/>
<text x="48" y="150.5" font-size="10.5" fill="#898781" text-anchor="end" font-weight="normal">75%</text>
<line x1="56" y1="84" x2="640" y2="84" stroke="#e1e0d9" stroke-width="1"/>
<text x="48" y="87.5" font-size="10.5" fill="#898781" text-anchor="end" font-weight="normal">100%</text>
<line x1="56" y1="84" x2="56" y2="336" stroke="#e1e0d9" stroke-width="1"/>
<text x="56" y="352" font-size="10.5" fill="#898781" text-anchor="middle" font-weight="normal">1</text>
<line x1="202" y1="84" x2="202" y2="336" stroke="#e1e0d9" stroke-width="1"/>
<text x="202" y="352" font-size="10.5" fill="#898781" text-anchor="middle" font-weight="normal">10</text>
<line x1="348" y1="84" x2="348" y2="336" stroke="#e1e0d9" stroke-width="1"/>
<text x="348" y="352" font-size="10.5" fill="#898781" text-anchor="middle" font-weight="normal">100</text>
<line x1="494" y1="84" x2="494" y2="336" stroke="#e1e0d9" stroke-width="1"/>
<text x="494" y="352" font-size="10.5" fill="#898781" text-anchor="middle" font-weight="normal">1k</text>
<line x1="640" y1="84" x2="640" y2="336" stroke="#e1e0d9" stroke-width="1"/>
<text x="640" y="352" font-size="10.5" fill="#898781" text-anchor="middle" font-weight="normal">10k</text>
<line x1="56" y1="336" x2="640" y2="336" stroke="#c3c2b7" stroke-width="1.5"/>
<text x="348" y="372" font-size="10.5" fill="#898781" text-anchor="middle" font-weight="normal">dimension n (log scale)</text>
<path d="M56.00,333.48L57.95,333.40L59.89,333.32L61.84,333.24L63.79,333.15L65.73,333.06L67.68,332.97L69.63,332.88L71.57,332.78L73.52,332.68L75.47,332.58L77.41,332.47L79.36,332.37L81.31,332.25L83.25,332.14L85.20,332.02L87.15,331.89L89.09,331.77L91.04,331.64L92.99,331.50L94.93,331.36L96.88,331.22L98.83,331.07L100.77,330.92L102.72,330.76L104.67,330.60L106.61,330.44L108.56,330.26L110.51,330.09L112.45,329.91L114.40,329.72L116.35,329.52L118.29,329.33L120.24,329.12L122.19,328.91L124.13,328.69L126.08,328.47L128.03,328.24L129.97,328.00L131.92,327.75L133.87,327.50L135.81,327.24L137.76,326.97L139.71,326.69L141.65,326.41L143.60,326.12L145.55,325.81L147.49,325.50L149.44,325.18L151.39,324.85L153.33,324.51L155.28,324.16L157.23,323.80L159.17,323.43L161.12,323.05L163.07,322.66L165.01,322.26L166.96,321.84L168.91,321.41L170.85,320.97L172.80,320.52L174.75,320.05L176.69,319.57L178.64,319.07L180.59,318.56L182.53,318.04L184.48,317.50L186.43,316.95L188.37,316.38L190.32,315.79L192.27,315.19L194.21,314.57L196.16,313.93L198.11,313.27L200.05,312.60L202.00,311.90L203.95,311.19L205.89,310.46L207.84,309.71L209.79,308.93L211.73,308.14L213.68,307.32L215.63,306.48L217.57,305.62L219.52,304.73L221.47,303.82L223.41,302.89L225.36,301.93L227.31,300.94L229.25,299.93L231.20,298.89L233.15,297.83L235.09,296.74L237.04,295.62L238.99,294.47L240.93,293.29L242.88,292.08L244.83,290.84L246.77,289.57L248.72,288.27L250.67,286.94L252.61,285.57L254.56,284.17L256.51,282.74L258.45,281.28L260.40,279.78L262.35,278.24L264.29,276.67L266.24,275.07L268.19,273.42L270.13,271.75L272.08,270.03L274.03,268.28L275.97,266.49L277.92,264.66L279.87,262.80L281.81,260.89L283.76,258.95L285.71,256.97L287.65,254.96L289.60,252.90L291.55,250.81L293.49,248.68L295.44,246.51L297.39,244.30L299.33,242.05L301.28,239.77L303.23,237.45L305.17,235.10L307.12,232.71L309.07,230.28L311.01,227.82L312.96,225.33L314.91,222.80L316.85,220.25L318.80,217.66L320.75,215.04L322.69,212.40L324.64,209.73L326.59,207.03L328.53,204.31L330.48,201.57L332.43,198.81L334.37,196.03L336.32,193.23L338.27,190.42L340.21,187.60L342.16,184.77L344.11,181.93L346.05,179.09L348.00,176.24L349.95,173.39L351.89,170.55L353.84,167.72L355.79,164.89L357.73,162.07L359.68,159.27L361.63,156.49L363.57,153.73L365.52,150.99L367.47,148.28L369.41,145.60L371.36,142.95L373.31,140.34L375.25,137.77L377.20,135.24L379.15,132.76L381.09,130.33L383.04,127.94L384.99,125.61L386.93,123.34L388.88,121.13L390.83,118.98L392.77,116.89L394.72,114.86L396.67,112.91L398.61,111.02L400.56,109.20L402.51,107.46L404.45,105.79L406.40,104.18L408.35,102.66L410.29,101.20L412.24,99.82L414.19,98.51L416.13,97.28L418.08,96.11L420.03,95.02L421.97,93.99L423.92,93.04L425.87,92.15L427.81,91.32L429.76,90.56L431.71,89.85L433.65,89.20L435.60,88.61L437.55,88.07L439.49,87.58L441.44,87.13L443.39,86.73L445.33,86.37L447.28,86.05L449.23,85.77L451.17,85.51L453.12,85.29L455.07,85.09L457.01,84.92L458.96,84.78L460.91,84.65L462.85,84.54L464.80,84.44L466.75,84.36L468.69,84.30L470.64,84.24L472.59,84.19L474.53,84.16L476.48,84.12L478.43,84.10L480.37,84.08L482.32,84.06L484.27,84.05L486.21,84.03L488.16,84.03L490.11,84.02L492.05,84.01L494.00,84.01L495.95,84.01L497.89,84.01L499.84,84.00L501.79,84.00L503.73,84.00L505.68,84.00L507.63,84.00L509.57,84.00L511.52,84.00L513.47,84.00L515.41,84.00L517.36,84.00L519.31,84.00L521.25,84.00L523.20,84.00L525.15,84.00L527.09,84.00L529.04,84.00L530.99,84.00L532.93,84.00L534.88,84.00L536.83,84.00L538.77,84.00L540.72,84.00L542.67,84.00L544.61,84.00L546.56,84.00L548.51,84.00L550.45,84.00L552.40,84.00L554.35,84.00L556.29,84.00L558.24,84.00L560.19,84.00L562.13,84.00L564.08,84.00L566.03,84.00L567.97,84.00L569.92,84.00L571.87,84.00L573.81,84.00L575.76,84.00L577.71,84.00L579.65,84.00L581.60,84.00L583.55,84.00L585.49,84.00L587.44,84.00L589.39,84.00L591.33,84.00L593.28,84.00L595.23,84.00L597.17,84.00L599.12,84.00L601.07,84.00L603.01,84.00L604.96,84.00L606.91,84.00L608.85,84.00L610.80,84.00L612.75,84.00L614.69,84.00L616.64,84.00L618.59,84.00L620.53,84.00L622.48,84.00L624.43,84.00L626.37,84.00L628.32,84.00L630.27,84.00L632.21,84.00L634.16,84.00L636.11,84.00L638.05,84.00L640.00,84.00" fill="none" stroke="#6da7ec" stroke-width="2" stroke-linejoin="round" stroke-linecap="round"/>
<path d="M56.00,323.40L57.95,323.02L59.89,322.62L61.84,322.22L63.79,321.80L65.73,321.37L67.68,320.93L69.63,320.47L71.57,320.01L73.52,319.52L75.47,319.03L77.41,318.52L79.36,317.99L81.31,317.45L83.25,316.90L85.20,316.32L87.15,315.74L89.09,315.13L91.04,314.51L92.99,313.87L94.93,313.21L96.88,312.54L98.83,311.84L100.77,311.13L102.72,310.39L104.67,309.64L106.61,308.86L108.56,308.06L110.51,307.24L112.45,306.40L114.40,305.54L116.35,304.65L118.29,303.74L120.24,302.80L122.19,301.84L124.13,300.85L126.08,299.84L128.03,298.80L129.97,297.73L131.92,296.64L133.87,295.51L135.81,294.36L137.76,293.18L139.71,291.97L141.65,290.73L143.60,289.45L145.55,288.15L147.49,286.82L149.44,285.45L151.39,284.05L153.33,282.61L155.28,281.14L157.23,279.64L159.17,278.10L161.12,276.53L163.07,274.92L165.01,273.27L166.96,271.59L168.91,269.87L170.85,268.12L172.80,266.32L174.75,264.49L176.69,262.63L178.64,260.72L180.59,258.78L182.53,256.79L184.48,254.77L186.43,252.71L188.37,250.62L190.32,248.48L192.27,246.31L194.21,244.10L196.16,241.85L198.11,239.56L200.05,237.24L202.00,234.88L203.95,232.49L205.89,230.06L207.84,227.60L209.79,225.10L211.73,222.57L213.68,220.01L215.63,217.42L217.57,214.80L219.52,212.16L221.47,209.48L223.41,206.78L225.36,204.06L227.31,201.32L229.25,198.56L231.20,195.77L233.15,192.98L235.09,190.17L237.04,187.34L238.99,184.51L240.93,181.67L242.88,178.83L244.83,175.98L246.77,173.14L248.72,170.29L250.67,167.46L252.61,164.63L254.56,161.82L256.51,159.02L258.45,156.24L260.40,153.48L262.35,150.74L264.29,148.03L266.24,145.36L268.19,142.71L270.13,140.11L272.08,137.54L274.03,135.01L275.97,132.54L277.92,130.11L279.87,127.73L281.81,125.40L283.76,123.14L285.71,120.93L287.65,118.78L289.60,116.70L291.55,114.68L293.49,112.73L295.44,110.85L297.39,109.04L299.33,107.30L301.28,105.64L303.23,104.04L305.17,102.52L307.12,101.07L309.07,99.70L311.01,98.40L312.96,97.17L314.91,96.01L316.85,94.92L318.80,93.91L320.75,92.95L322.69,92.07L324.64,91.25L326.59,90.49L328.53,89.79L330.48,89.15L332.43,88.56L334.37,88.02L336.32,87.54L338.27,87.10L340.21,86.70L342.16,86.34L344.11,86.03L346.05,85.74L348.00,85.49L349.95,85.27L351.89,85.08L353.84,84.91L355.79,84.76L357.73,84.64L359.68,84.53L361.63,84.44L363.57,84.36L365.52,84.29L367.47,84.24L369.41,84.19L371.36,84.15L373.31,84.12L375.25,84.09L377.20,84.07L379.15,84.06L381.09,84.04L383.04,84.03L384.99,84.03L386.93,84.02L388.88,84.01L390.83,84.01L392.77,84.01L394.72,84.01L396.67,84.00L398.61,84.00L400.56,84.00L402.51,84.00L404.45,84.00L406.40,84.00L408.35,84.00L410.29,84.00L412.24,84.00L414.19,84.00L416.13,84.00L418.08,84.00L420.03,84.00L421.97,84.00L423.92,84.00L425.87,84.00L427.81,84.00L429.76,84.00L431.71,84.00L433.65,84.00L435.60,84.00L437.55,84.00L439.49,84.00L441.44,84.00L443.39,84.00L445.33,84.00L447.28,84.00L449.23,84.00L451.17,84.00L453.12,84.00L455.07,84.00L457.01,84.00L458.96,84.00L460.91,84.00L462.85,84.00L464.80,84.00L466.75,84.00L468.69,84.00L470.64,84.00L472.59,84.00L474.53,84.00L476.48,84.00L478.43,84.00L480.37,84.00L482.32,84.00L484.27,84.00L486.21,84.00L488.16,84.00L490.11,84.00L492.05,84.00L494.00,84.00L495.95,84.00L497.89,84.00L499.84,84.00L501.79,84.00L503.73,84.00L505.68,84.00L507.63,84.00L509.57,84.00L511.52,84.00L513.47,84.00L515.41,84.00L517.36,84.00L519.31,84.00L521.25,84.00L523.20,84.00L525.15,84.00L527.09,84.00L529.04,84.00L530.99,84.00L532.93,84.00L534.88,84.00L536.83,84.00L538.77,84.00L540.72,84.00L542.67,84.00L544.61,84.00L546.56,84.00L548.51,84.00L550.45,84.00L552.40,84.00L554.35,84.00L556.29,84.00L558.24,84.00L560.19,84.00L562.13,84.00L564.08,84.00L566.03,84.00L567.97,84.00L569.92,84.00L571.87,84.00L573.81,84.00L575.76,84.00L577.71,84.00L579.65,84.00L581.60,84.00L583.55,84.00L585.49,84.00L587.44,84.00L589.39,84.00L591.33,84.00L593.28,84.00L595.23,84.00L597.17,84.00L599.12,84.00L601.07,84.00L603.01,84.00L604.96,84.00L606.91,84.00L608.85,84.00L610.80,84.00L612.75,84.00L614.69,84.00L616.64,84.00L618.59,84.00L620.53,84.00L622.48,84.00L624.43,84.00L626.37,84.00L628.32,84.00L630.27,84.00L632.21,84.00L634.16,84.00L636.11,84.00L638.05,84.00L640.00,84.00" fill="none" stroke="#2a78d6" stroke-width="2" stroke-linejoin="round" stroke-linecap="round"/>
<path d="M56.00,310.80L57.95,310.06L59.89,309.29L61.84,308.51L63.79,307.70L65.73,306.87L67.68,306.02L69.63,305.14L71.57,304.24L73.52,303.32L75.47,302.37L77.41,301.40L79.36,300.40L81.31,299.38L83.25,298.32L85.20,297.25L87.15,296.14L89.09,295.00L91.04,293.84L92.99,292.64L94.93,291.42L96.88,290.16L98.83,288.88L100.77,287.56L102.72,286.21L104.67,284.83L106.61,283.41L108.56,281.96L110.51,280.48L112.45,278.96L114.40,277.40L116.35,275.81L118.29,274.19L120.24,272.53L122.19,270.83L124.13,269.09L126.08,267.32L128.03,265.51L129.97,263.67L131.92,261.78L133.87,259.86L135.81,257.90L137.76,255.90L139.71,253.86L141.65,251.78L143.60,249.67L145.55,247.51L147.49,245.32L149.44,243.10L151.39,240.83L153.33,238.53L155.28,236.19L157.23,233.82L159.17,231.41L161.12,228.96L163.07,226.49L165.01,223.98L166.96,221.43L168.91,218.86L170.85,216.26L172.80,213.63L174.75,210.97L176.69,208.28L178.64,205.57L180.59,202.84L182.53,200.09L184.48,197.32L186.43,194.53L188.37,191.72L190.32,188.91L192.27,186.08L194.21,183.24L196.16,180.40L198.11,177.56L200.05,174.71L202.00,171.87L203.95,169.03L205.89,166.20L207.84,163.37L209.79,160.57L211.73,157.77L213.68,155.00L215.63,152.25L217.57,149.53L219.52,146.83L221.47,144.17L223.41,141.54L225.36,138.95L227.31,136.41L229.25,133.90L231.20,131.45L233.15,129.04L235.09,126.68L237.04,124.39L238.99,122.14L240.93,119.96L242.88,117.85L244.83,115.79L246.77,113.81L248.72,111.89L250.67,110.04L252.61,108.26L254.56,106.55L256.51,104.92L258.45,103.35L260.40,101.87L262.35,100.45L264.29,99.11L266.24,97.84L268.19,96.64L270.13,95.52L272.08,94.46L274.03,93.47L275.97,92.55L277.92,91.70L279.87,90.90L281.81,90.17L283.76,89.50L285.71,88.88L287.65,88.31L289.60,87.80L291.55,87.33L293.49,86.91L295.44,86.54L297.39,86.20L299.33,85.89L301.28,85.63L303.23,85.39L305.17,85.18L307.12,85.00L309.07,84.84L311.01,84.70L312.96,84.59L314.91,84.49L316.85,84.40L318.80,84.33L320.75,84.27L322.69,84.21L324.64,84.17L326.59,84.14L328.53,84.11L330.48,84.09L332.43,84.07L334.37,84.05L336.32,84.04L338.27,84.03L340.21,84.02L342.16,84.02L344.11,84.01L346.05,84.01L348.00,84.01L349.95,84.00L351.89,84.00L353.84,84.00L355.79,84.00L357.73,84.00L359.68,84.00L361.63,84.00L363.57,84.00L365.52,84.00L367.47,84.00L369.41,84.00L371.36,84.00L373.31,84.00L375.25,84.00L377.20,84.00L379.15,84.00L381.09,84.00L383.04,84.00L384.99,84.00L386.93,84.00L388.88,84.00L390.83,84.00L392.77,84.00L394.72,84.00L396.67,84.00L398.61,84.00L400.56,84.00L402.51,84.00L404.45,84.00L406.40,84.00L408.35,84.00L410.29,84.00L412.24,84.00L414.19,84.00L416.13,84.00L418.08,84.00L420.03,84.00L421.97,84.00L423.92,84.00L425.87,84.00L427.81,84.00L429.76,84.00L431.71,84.00L433.65,84.00L435.60,84.00L437.55,84.00L439.49,84.00L441.44,84.00L443.39,84.00L445.33,84.00L447.28,84.00L449.23,84.00L451.17,84.00L453.12,84.00L455.07,84.00L457.01,84.00L458.96,84.00L460.91,84.00L462.85,84.00L464.80,84.00L466.75,84.00L468.69,84.00L470.64,84.00L472.59,84.00L474.53,84.00L476.48,84.00L478.43,84.00L480.37,84.00L482.32,84.00L484.27,84.00L486.21,84.00L488.16,84.00L490.11,84.00L492.05,84.00L494.00,84.00L495.95,84.00L497.89,84.00L499.84,84.00L501.79,84.00L503.73,84.00L505.68,84.00L507.63,84.00L509.57,84.00L511.52,84.00L513.47,84.00L515.41,84.00L517.36,84.00L519.31,84.00L521.25,84.00L523.20,84.00L525.15,84.00L527.09,84.00L529.04,84.00L530.99,84.00L532.93,84.00L534.88,84.00L536.83,84.00L538.77,84.00L540.72,84.00L542.67,84.00L544.61,84.00L546.56,84.00L548.51,84.00L550.45,84.00L552.40,84.00L554.35,84.00L556.29,84.00L558.24,84.00L560.19,84.00L562.13,84.00L564.08,84.00L566.03,84.00L567.97,84.00L569.92,84.00L571.87,84.00L573.81,84.00L575.76,84.00L577.71,84.00L579.65,84.00L581.60,84.00L583.55,84.00L585.49,84.00L587.44,84.00L589.39,84.00L591.33,84.00L593.28,84.00L595.23,84.00L597.17,84.00L599.12,84.00L601.07,84.00L603.01,84.00L604.96,84.00L606.91,84.00L608.85,84.00L610.80,84.00L612.75,84.00L614.69,84.00L616.64,84.00L618.59,84.00L620.53,84.00L622.48,84.00L624.43,84.00L626.37,84.00L628.32,84.00L630.27,84.00L632.21,84.00L634.16,84.00L636.11,84.00L638.05,84.00L640.00,84.00" fill="none" stroke="#184f95" stroke-width="2" stroke-linejoin="round" stroke-linecap="round"/>
<text x="168.44954573863617" y="213.5" font-size="10.5" fill="#52514e" text-anchor="end" font-weight="normal">ε = 10%</text>
<text x="228.09167071039312" y="213.5" font-size="10.5" fill="#52514e" text-anchor="start" font-weight="normal">ε = 5%</text>
<text x="332.4421533801947" y="226" font-size="10.5" fill="#52514e" text-anchor="start" font-weight="normal">ε = 1% — half the ball by n ≈ 69</text>
</svg>
