<svg xmlns="http://www.w3.org/2000/svg" width="760" height="380" viewBox="0 0 760 380" font-family="system-ui, -apple-system, 'Segoe UI', sans-serif">
<rect width="760" height="380" fill="#fcfcfb" rx="8"/>
<text x="20" y="26" font-size="14" fill="#0b0b0b" text-anchor="start" font-weight="600">The unit ball's volume rises, peaks at n = 5, then collapses</text>
<text x="20" y="43" font-size="11" fill="#52514e" text-anchor="start" font-weight="normal">Vₙ(1) = πⁿᐟ² / Γ(nᐟ2+1); each added pair of dimensions multiplies it by 2π/n — a shrink once n > 2π ≈ 6.3</text>
<line x1="56" y1="336" x2="736" y2="336" stroke="#e1e0d9" stroke-width="1"/>
<text x="48" y="339.5" font-size="10.5" fill="#898781" text-anchor="end" font-weight="normal">0</text>
<line x1="56" y1="291" x2="736" y2="291" stroke="#e1e0d9" stroke-width="1"/>
<text x="48" y="294.5" font-size="10.5" fill="#898781" text-anchor="end" font-weight="normal">1</text>
<line x1="56" y1="246.00000000000003" x2="736" y2="246.00000000000003" stroke="#e1e0d9" stroke-width="1"/>
<text x="48" y="249.50000000000003" font-size="10.5" fill="#898781" text-anchor="end" font-weight="normal">2</text>
<line x1="56" y1="201" x2="736" y2="201" stroke="#e1e0d9" stroke-width="1"/>
<text x="48" y="204.5" font-size="10.5" fill="#898781" text-anchor="end" font-weight="normal">3</text>
<line x1="56" y1="156" x2="736" y2="156" stroke="#e1e0d9" stroke-width="1"/>
<text x="48" y="159.5" font-size="10.5" fill="#898781" text-anchor="end" font-weight="normal">4</text>
<line x1="56" y1="111" x2="736" y2="111" stroke="#e1e0d9" stroke-width="1"/>
<text x="48" y="114.5" font-size="10.5" fill="#898781" text-anchor="end" font-weight="normal">5</text>
<line x1="56" y1="66" x2="736" y2="66" stroke="#e1e0d9" stroke-width="1"/>
<text x="48" y="69.5" font-size="10.5" fill="#898781" text-anchor="end" font-weight="normal">6</text>
<path d="M61.1,336 L61.1,250.00000000000003 Q61.1,246.00000000000003 65.1,246.00000000000003 L80.9,246.00000000000003 Q84.9,246.00000000000003 84.9,250.00000000000003 L84.9,336 Z" fill="#2a78d6"/>
<text x="73" y="352" font-size="10.5" fill="#898781" text-anchor="middle" font-weight="normal">1</text>
<path d="M95.1,336 L95.1,198.6283305884593 Q95.1,194.6283305884593 99.1,194.6283305884593 L114.89999999999999,194.6283305884593 Q118.89999999999999,194.6283305884593 118.89999999999999,198.6283305884593 L118.89999999999999,336 Z" fill="#2a78d6"/>
<text x="107" y="352" font-size="10.5" fill="#898781" text-anchor="middle" font-weight="normal">2</text>
<path d="M129.1,336 L129.1,151.50444078461237 Q129.1,147.50444078461237 133.1,147.50444078461237 L148.89999999999998,147.50444078461237 Q152.89999999999998,147.50444078461237 152.89999999999998,151.50444078461237 L152.89999999999998,336 Z" fill="#2a78d6"/>
<text x="141" y="352" font-size="10.5" fill="#898781" text-anchor="middle" font-weight="normal">3</text>
<path d="M163.1,336 L163.1,117.93390097548952 Q163.1,113.93390097548952 167.1,113.93390097548952 L182.89999999999998,113.93390097548952 Q186.89999999999998,113.93390097548952 186.89999999999998,117.93390097548952 L186.89999999999998,336 Z" fill="#2a78d6"/>
<text x="175" y="352" font-size="10.5" fill="#898781" text-anchor="middle" font-weight="normal">4</text>
<path d="M197.1,336 L197.1,103.1294943738554 Q197.1,99.1294943738554 201.1,99.1294943738554 L216.89999999999998,99.1294943738554 Q220.89999999999998,99.1294943738554 220.89999999999998,103.1294943738554 L220.89999999999998,336 Z" fill="#2a78d6"/>
<text x="209" y="352" font-size="10.5" fill="#898781" text-anchor="middle" font-weight="normal">5</text>
<path d="M231.1,336 L231.1,107.4529248977515 Q231.1,103.4529248977515 235.1,103.4529248977515 L250.89999999999998,103.4529248977515 Q254.89999999999998,103.4529248977515 254.89999999999998,107.4529248977515 L254.89999999999998,336 Z" fill="#2a78d6"/>
<text x="243" y="352" font-size="10.5" fill="#898781" text-anchor="middle" font-weight="normal">6</text>
<path d="M265.1,336 L265.1,127.38553133508691 Q265.1,123.38553133508691 269.1,123.38553133508691 L284.90000000000003,123.38553133508691 Q288.90000000000003,123.38553133508691 288.90000000000003,127.38553133508691 L288.90000000000003,336 Z" fill="#2a78d6"/>
<text x="277" y="352" font-size="10.5" fill="#898781" text-anchor="middle" font-weight="normal">7</text>
<path d="M299.1,336 L299.1,157.35795431124552 Q299.1,153.35795431124552 303.1,153.35795431124552 L318.90000000000003,153.35795431124552 Q322.90000000000003,153.35795431124552 322.90000000000003,157.35795431124552 L322.90000000000003,336 Z" fill="#2a78d6"/>
<text x="311" y="352" font-size="10.5" fill="#898781" text-anchor="middle" font-weight="normal">8</text>
<path d="M333.1,336 L333.1,191.56709937675828 Q333.1,187.56709937675828 337.1,187.56709937675828 L352.90000000000003,187.56709937675828 Q356.90000000000003,187.56709937675828 356.90000000000003,191.56709937675828 L356.90000000000003,336 Z" fill="#2a78d6"/>
<text x="345" y="352" font-size="10.5" fill="#898781" text-anchor="middle" font-weight="normal">9</text>
<path d="M367.1,336 L367.1,225.24261820551956 Q367.1,221.24261820551956 371.1,221.24261820551956 L386.90000000000003,221.24261820551956 Q390.90000000000003,221.24261820551956 390.90000000000003,225.24261820551956 L390.90000000000003,336 Z" fill="#2a78d6"/>
<text x="379" y="352" font-size="10.5" fill="#898781" text-anchor="middle" font-weight="normal">10</text>
<path d="M401.1,336 L401.1,255.21532542745456 Q401.1,251.21532542745456 405.1,251.21532542745456 L420.90000000000003,251.21532542745456 Q424.90000000000003,251.21532542745456 424.90000000000003,255.21532542745456 L424.90000000000003,336 Z" fill="#2a78d6"/>
<text x="413" y="352" font-size="10.5" fill="#898781" text-anchor="middle" font-weight="normal">11</text>
<path d="M435.1,336 L435.1,279.9131754015435 Q435.1,275.9131754015435 439.1,275.9131754015435 L454.90000000000003,275.9131754015435 Q458.90000000000003,275.9131754015435 458.90000000000003,279.9131754015435 L458.90000000000003,336 Z" fill="#2a78d6"/>
<text x="447" y="352" font-size="10.5" fill="#898781" text-anchor="middle" font-weight="normal">12</text>
<path d="M469.1,336 L469.1,299.0217060347523 Q469.1,295.0217060347523 473.1,295.0217060347523 L488.90000000000003,295.0217060347523 Q492.90000000000003,295.0217060347523 492.90000000000003,299.0217060347523 L492.90000000000003,336 Z" fill="#2a78d6"/>
<text x="481" y="352" font-size="10.5" fill="#898781" text-anchor="middle" font-weight="normal">13</text>
<path d="M503.1,336 L503.1,313.03309618056437 Q503.1,309.03309618056437 507.1,309.03309618056437 L522.9,309.03309618056437 Q526.9,309.03309618056437 526.9,313.03309618056437 L526.9,336 Z" fill="#2a78d6"/>
<text x="515" y="352" font-size="10.5" fill="#898781" text-anchor="middle" font-weight="normal">14</text>
<path d="M537.1,336 L537.1,322.83505236295133 Q537.1,318.83505236295133 541.1,318.83505236295133 L556.9,318.83505236295133 Q560.9,318.83505236295133 560.9,322.83505236295133 L560.9,336 Z" fill="#2a78d6"/>
<text x="549" y="352" font-size="10.5" fill="#898781" text-anchor="middle" font-weight="normal">15</text>
<path d="M571.1,336 L571.1,329.4101216338498 Q571.1,325.4101216338498 575.1,325.4101216338498 L590.9,325.4101216338498 Q594.9,325.4101216338498 594.9,329.4101216338498 L594.9,336 Z" fill="#2a78d6"/>
<text x="583" y="352" font-size="10.5" fill="#898781" text-anchor="middle" font-weight="normal">16</text>
<path d="M605.1,336 L605.1,333.6558501887287 Q605.1,329.6558501887287 609.1,329.6558501887287 L624.9,329.6558501887287 Q628.9,329.6558501887287 628.9,333.6558501887287 L628.9,336 Z" fill="#2a78d6"/>
<text x="617" y="352" font-size="10.5" fill="#898781" text-anchor="middle" font-weight="normal">17</text>
<path d="M639.1,336 L639.1,336 Q639.1,332.30343510249924 642.7965648975007,332.30343510249924 L659.2034351024993,332.30343510249924 Q662.9,332.30343510249924 662.9,336 L662.9,336 Z" fill="#2a78d6"/>
<text x="651" y="352" font-size="10.5" fill="#898781" text-anchor="middle" font-weight="normal">18</text>
<path d="M673.1,336 L673.1,336 Q673.1,333.90202795364604 675.1979720463539,333.90202795364604 L694.8020279536461,333.90202795364604 Q696.9,333.90202795364604 696.9,336 L696.9,336 Z" fill="#2a78d6"/>
<text x="685" y="352" font-size="10.5" fill="#898781" text-anchor="middle" font-weight="normal">19</text>
<path d="M707.1,336 L707.1,336 Q707.1,334.8386898874494 708.2613101125506,334.8386898874494 L729.7386898874494,334.8386898874494 Q730.9,334.8386898874494 730.9,336 L730.9,336 Z" fill="#2a78d6"/>
<text x="719" y="352" font-size="10.5" fill="#898781" text-anchor="middle" font-weight="normal">20</text>
<line x1="56" y1="336" x2="736" y2="336" stroke="#c3c2b7" stroke-width="1.5"/>
<text x="396" y="372" font-size="10.5" fill="#898781" text-anchor="middle" font-weight="normal">dimension n</text>
<text x="209" y="91.1294943738554" font-size="11" fill="#0b0b0b" text-anchor="middle" font-weight="600">5.26</text>
<text x="719" y="326.8386898874494" font-size="10" fill="#52514e" text-anchor="middle" font-weight="normal">0.026</text>
<text x="736" y="26" font-size="10.5" fill="#52514e" text-anchor="end" font-weight="normal">V₁₀₀ ≈ 2.4×10⁻⁴⁰</text>
</svg>
